<?xml version="1.0" standalone="no"?>
<!DOCTYPE svg PUBLIC "-//W3C//DTD SVG 20010904//EN"
 "http://www.w3.org/TR/2001/REC-SVG-20010904/DTD/svg10.dtd">
<svg version="1.0" xmlns="http://www.w3.org/2000/svg"
 width="540.000000pt" height="540.000000pt" viewBox="0 0 540.000000 540.000000"
 preserveAspectRatio="xMidYMid meet">
<metadata>
Created by potrace 1.14, written by Peter Selinger 2001-2017
</metadata>
<g transform="translate(0.000000,540.000000) scale(0.100000,-0.100000)"
fill="#000000" stroke="none">
<path d="M2670 4848 c-15 -46 -15 -48 -23 -93 -12 -63 -18 -91 -24 -120 -4
-16 -7 -33 -7 -37 -1 -3 -4 -9 -8 -13 -4 -4 -4 -13 -2 -20 3 -7 1 -16 -5 -19
-6 -4 -8 -13 -5 -20 3 -8 0 -17 -5 -21 -6 -3 -9 -10 -6 -15 3 -4 -9 -10 -25
-12 -17 -3 -30 0 -30 5 0 6 -5 5 -12 -1 -7 -5 -31 -13 -53 -16 -55 -8 -110
-22 -125 -31 -9 -6 -11 -4 -5 4 4 7 -5 5 -21 -5 -21 -14 -26 -15 -19 -4 7 13
5 12 -11 -1 -16 -13 -90 -41 -116 -43 -3 -1 -10 -4 -14 -8 -4 -5 -16 -8 -27
-8 -11 0 -17 -3 -14 -7 9 -8 -51 -37 -75 -36 -10 0 -14 -5 -11 -13 3 -8 1 -14
-5 -14 -6 0 -12 5 -14 11 -2 7 -10 4 -18 -7 -12 -14 -12 -16 -1 -9 10 5 12 4
7 -4 -4 -7 -17 -9 -29 -6 -17 5 -19 4 -7 -4 13 -10 8 -15 -12 -12 -5 0 -8 -5
-8 -12 0 -8 -4 -7 -10 3 -5 8 -10 12 -10 8 0 -4 -11 3 -23 15 -13 12 -43 38
-67 57 -24 19 -48 40 -55 47 -12 11 -30 16 -52 14 -11 -1 15 -74 48 -134 5
-10 7 -23 3 -29 -4 -6 -3 -8 3 -5 10 7 24 -27 28 -65 2 -20 -5 -23 -23 -8 -9
7 -9 7 -2 -2 10 -12 14 -36 5 -26 -7 7 -80 -64 -88 -85 -3 -9 -12 -17 -18 -17
-8 0 -7 5 2 18 11 14 10 13 -9 -2 -23 -20 -30 -32 -12 -21 20 12 10 -8 -16
-31 -14 -13 -22 -24 -18 -24 3 0 1 -7 -6 -15 -7 -8 -16 -12 -21 -9 -5 3 -8 2
-7 -3 5 -17 -27 -73 -40 -68 -7 3 -10 0 -7 -5 3 -6 0 -10 -7 -10 -9 0 -9 -3 2
-10 8 -5 10 -10 4 -10 -6 0 -22 -21 -35 -47 -13 -27 -27 -50 -30 -53 -7 -6
-19 -41 -18 -54 0 -5 -6 -13 -15 -18 -9 -5 -14 -13 -11 -18 3 -4 -2 -21 -10
-36 -8 -16 -15 -35 -15 -42 0 -8 -5 -10 -12 -6 -7 5 -9 2 -5 -8 5 -14 -4 -15
-59 -13 -79 4 -81 -4 -14 -75 31 -33 47 -57 42 -64 -5 -6 -8 -26 -7 -43 0 -24
-4 -33 -15 -33 -9 0 -11 -3 -5 -8 10 -6 11 -13 6 -40 0 -4 -16 -9 -33 -10 -18
-2 -49 -7 -68 -12 -19 -5 -53 -11 -75 -15 -22 -3 -47 -7 -55 -10 -8 -2 -33 -6
-55 -10 -22 -3 -56 -8 -75 -12 -19 -3 -44 -8 -55 -9 -11 -1 -20 -3 -20 -4 0
-1 -20 -5 -75 -14 -178 -29 -330 -62 -334 -72 -5 -12 38 -24 129 -38 17 -3 73
-12 125 -20 52 -9 112 -18 134 -22 21 -3 46 -7 55 -9 9 -2 44 -7 76 -11 60 -8
68 -9 83 -14 4 -1 18 -1 31 0 13 1 21 -2 18 -7 -3 -4 7 -8 21 -9 62 -1 172
-17 173 -25 1 -5 2 -15 3 -21 1 -7 -3 -19 -8 -27 -8 -11 -8 -13 1 -8 6 4 14 3
18 -3 3 -5 1 -10 -4 -10 -6 0 -11 -5 -11 -11 0 -5 4 -8 9 -5 14 9 21 -20 8
-34 -9 -10 -8 -12 4 -7 14 5 15 0 9 -28 -4 -19 -5 -33 -1 -32 3 1 7 -1 8 -6 2
-4 10 -24 19 -45 20 -46 28 -106 14 -97 -6 3 -13 -1 -16 -9 -3 -9 -10 -14 -14
-11 -4 3 -11 -2 -14 -11 -3 -8 -10 -13 -15 -9 -6 3 -13 0 -18 -8 -4 -7 -31
-27 -60 -45 -102 -65 -66 -82 75 -34 45 16 82 24 82 19 0 -6 8 -3 18 7 18 15
19 15 30 -10 8 -16 9 -31 3 -43 -7 -13 -6 -18 4 -18 7 0 11 7 7 15 -3 10 -1
13 6 8 7 -4 12 -13 12 -20 0 -8 7 -19 16 -27 14 -12 14 -14 -3 -27 -17 -14
-17 -14 1 -8 26 9 50 -12 35 -31 -10 -11 -8 -12 7 -7 10 4 16 4 12 0 -3 -4 2
-16 13 -27 11 -11 17 -24 14 -30 -4 -5 -3 -8 2 -7 4 2 8 -1 8 -5 0 -5 8 -13
18 -18 9 -6 17 -17 17 -25 0 -8 5 -12 10 -9 6 3 10 2 10 -4 0 -5 -6 -12 -12
-15 -9 -4 -8 -5 2 -5 32 2 39 -2 33 -16 -3 -9 -2 -15 3 -14 22 4 34 -2 34 -16
0 -8 4 -15 8 -15 5 0 17 -7 28 -15 14 -11 15 -14 3 -9 -10 3 -19 2 -22 -3 -3
-4 7 -9 21 -10 15 0 34 -11 44 -23 16 -20 16 -23 -2 -65 -10 -24 -16 -46 -13
-49 4 -3 1 -6 -5 -6 -7 0 -12 -4 -12 -9 0 -5 -5 -22 -12 -38 -6 -15 -12 -32
-14 -38 -2 -8 -15 -42 -30 -75 -1 -3 -5 -15 -9 -27 -4 -13 -12 -23 -17 -23 -5
0 -7 -4 -4 -8 5 -9 -59 -179 -75 -198 -5 -7 -9 -16 -7 -20 1 -5 -5 -25 -13
-44 -9 -19 -42 -102 -74 -183 -49 -124 -57 -150 -45 -158 11 -6 25 2 55 35
100 111 185 217 328 410 24 32 69 88 77 96 3 3 10 14 17 25 6 11 16 19 22 17
6 -1 10 1 9 5 -4 14 23 54 32 48 6 -3 7 0 4 8 -3 8 2 17 11 21 9 3 13 11 9 18
-5 7 -2 9 7 6 10 -4 15 1 16 13 2 28 27 49 52 42 11 -3 21 -10 21 -15 0 -5 4
-6 10 -3 5 3 8 0 5 -7 -2 -7 -7 -26 -10 -43 -12 -64 -16 -81 -21 -97 -3 -10
-7 -28 -10 -40 -4 -22 -7 -38 -21 -98 -3 -14 -6 -31 -6 -37 0 -7 -4 -13 -9
-13 -5 0 -7 -4 -4 -9 3 -5 0 -29 -8 -54 -12 -40 -12 -47 1 -51 12 -5 52 21 46
31 -5 7 31 82 37 78 4 -3 7 1 6 8 -2 22 69 167 82 167 7 0 11 4 8 9 -4 5 4 29
17 53 21 39 25 43 57 40 56 -4 59 -5 55 -13 -3 -4 5 -7 18 -7 38 -1 86 -8 92
-14 4 -3 8 -36 10 -73 2 -36 6 -69 9 -72 3 -3 1 -14 -5 -24 -5 -11 -6 -19 -1
-19 4 0 9 -19 9 -42 1 -42 6 -99 18 -203 3 -27 7 -79 10 -115 2 -36 6 -83 9
-105 3 -22 8 -94 11 -160 3 -66 7 -129 9 -140 2 -11 9 -56 16 -100 16 -111 33
-211 55 -315 3 -14 8 -38 10 -55 3 -16 8 -37 10 -45 2 -8 7 -31 10 -50 3 -19
12 -41 20 -49 11 -11 15 -10 23 5 5 11 12 35 15 54 3 19 8 46 11 60 16 69 29
137 31 150 1 8 10 53 18 100 9 47 19 108 23 135 3 28 7 57 8 65 7 42 16 136
21 225 8 141 13 200 15 200 1 0 4 20 6 45 2 25 5 68 7 95 3 28 5 65 6 83 1 22
5 31 13 26 7 -5 8 -3 2 7 -11 19 -13 59 -2 59 5 0 4 8 -1 19 -6 10 -8 21 -4
25 6 6 10 48 12 119 1 21 5 36 9 33 5 -3 9 1 9 9 0 8 -4 12 -8 10 -4 -3 -6 6
-5 20 1 30 22 40 44 23 12 -10 14 -10 8 0 -9 16 6 16 23 -1 10 -10 11 -8 5 8
-4 11 -4 17 0 14 4 -4 27 -1 52 7 34 10 43 10 39 1 -4 -7 0 -4 7 5 13 15 17
12 47 -37 33 -54 38 -73 19 -67 -5 1 -7 -2 -3 -7 3 -6 12 -8 19 -5 15 6 29
-22 19 -38 -4 -7 -1 -8 7 -3 10 6 12 3 8 -13 -4 -12 -2 -20 3 -16 12 7 31 -44
23 -58 -4 -6 -2 -8 3 -5 6 4 25 -25 44 -68 23 -53 37 -74 47 -70 7 3 15 5 17
5 5 0 -3 42 -20 110 -7 30 -16 69 -18 86 -3 17 -10 40 -16 51 -5 11 -8 23 -4
26 3 3 2 14 -3 24 -4 10 -8 29 -9 43 -1 14 -6 33 -10 42 -4 9 -4 22 0 28 3 5
1 10 -4 10 -16 0 -13 27 3 33 8 3 17 1 20 -6 2 -7 5 -6 5 4 1 18 31 22 31 3 0
-6 7 -14 15 -18 8 -3 15 -10 15 -16 0 -11 9 -23 41 -58 27 -30 79 -100 79
-107 0 -3 -6 -3 -12 1 -8 4 -10 3 -5 -2 5 -5 13 -9 19 -9 6 0 16 -9 22 -20 6
-10 17 -26 24 -34 7 -7 48 -59 90 -115 129 -171 296 -366 314 -366 20 0 2 61
-83 272 -49 125 -91 237 -92 247 0 11 -5 17 -9 15 -4 -3 -9 0 -9 5 -1 6 -2 15
-3 19 -1 8 -24 64 -58 140 -10 23 -19 52 -21 65 -1 12 -6 25 -10 28 -5 3 -20
37 -33 74 l-25 68 31 29 c17 15 39 28 48 28 13 0 14 2 4 9 -11 6 -10 10 5 16
10 5 21 8 25 7 4 -1 4 6 1 15 -4 11 -3 14 5 9 7 -4 12 -1 12 9 0 11 5 15 15
12 8 -4 17 -1 21 5 5 7 2 8 -6 3 -8 -5 -11 -3 -8 6 3 8 11 13 17 11 6 -1 10 1
9 5 -1 5 6 22 17 38 18 29 29 42 75 93 11 12 18 22 15 22 -3 0 -1 9 5 20 6 11
15 18 19 15 5 -2 8 3 7 13 0 9 4 16 10 15 8 -1 10 6 6 19 -4 17 -2 20 11 15 9
-3 19 -1 23 5 4 6 3 8 -4 4 -6 -3 -13 -2 -17 4 -3 5 -1 10 5 10 6 0 8 5 5 10
-3 6 3 10 14 10 12 0 21 -4 21 -9 0 -4 8 -8 18 -8 16 1 91 -18 122 -30 51 -20
77 -22 77 -5 0 15 -29 50 -44 54 -29 6 -92 55 -88 67 4 11 3 12 -10 1 -9 -8
-15 -8 -15 -2 0 6 -9 14 -20 17 -20 6 -28 44 -12 59 7 7 8 11 11 37 0 5 5 8 9
5 5 -3 9 1 9 9 0 8 -4 12 -9 9 -14 -9 -9 14 8 30 8 9 12 20 9 26 -3 5 0 10 7
10 9 0 9 3 -2 10 -10 6 -11 10 -2 10 6 0 11 3 11 8 -5 28 2 52 14 46 9 -6 9
-5 -1 8 -10 12 -10 17 1 27 8 6 18 7 22 3 5 -4 5 -1 1 6 -4 7 -11 10 -16 7 -5
-3 -8 4 -7 15 1 11 4 20 7 21 3 0 14 3 25 5 11 3 31 6 45 8 14 2 39 6 55 9 17
4 50 9 75 13 24 3 49 8 54 11 5 4 6 0 1 -8 -7 -11 -6 -12 6 -2 14 11 74 23
136 26 18 1 33 6 33 10 0 5 3 6 8 3 4 -2 28 -1 52 4 25 5 63 11 85 14 49 8 91
14 130 21 17 3 46 8 65 11 55 8 71 15 67 27 -4 13 -23 18 -217 52 -47 8 -98
18 -115 21 -16 3 -39 7 -50 9 -79 12 -103 16 -125 22 -14 3 -34 7 -45 8 -11 2
-33 6 -50 10 -16 4 -40 7 -52 8 -13 1 -23 4 -23 7 0 3 -10 7 -22 7 -13 1 -39
4 -58 6 -19 3 -41 6 -48 6 -7 1 -11 5 -8 10 3 5 -2 8 -10 7 -22 -1 -27 32 -7
43 11 6 12 10 4 15 -6 4 -11 2 -11 -3 0 -6 -4 -11 -8 -11 -4 0 -9 19 -11 42
-1 23 -5 46 -8 51 -4 6 0 8 10 4 11 -4 14 -2 11 8 -3 8 4 20 15 27 12 7 21 16
21 20 0 5 9 17 20 28 31 31 25 41 -25 37 -27 -3 -46 0 -49 7 -3 7 -5 7 -5 -1
-1 -7 -11 -13 -23 -13 -21 0 -21 0 -2 15 18 15 18 15 0 8 -13 -4 -17 -3 -13 4
4 6 1 14 -5 16 -10 4 -10 6 0 6 6 1 12 6 12 13 0 6 -3 8 -7 5 -10 -11 -32 13
-26 29 3 8 0 14 -6 14 -6 0 -11 7 -11 17 0 15 2 15 19 -1 14 -13 21 -14 27 -5
4 7 3 10 -3 6 -6 -4 -16 0 -23 8 -7 8 -16 12 -21 9 -8 -5 -14 17 -10 39 0 4
-5 7 -13 7 -9 0 -13 9 -12 25 2 13 0 23 -3 22 -3 -1 -7 2 -8 6 -1 4 -9 14 -17
23 -8 8 -12 22 -9 32 3 9 3 14 -2 10 -4 -4 -14 -1 -21 7 -17 17 -18 29 -1 19
7 -4 9 -3 4 2 -5 5 -13 9 -18 9 -5 0 -9 4 -9 8 1 4 -9 17 -22 28 -13 11 -18
18 -11 15 6 -4 15 -1 19 5 4 7 3 9 -4 5 -14 -8 -45 23 -38 40 3 7 0 16 -6 20
-6 4 -8 3 -4 -4 3 -6 2 -13 -4 -17 -9 -6 -14 8 -11 28 1 5 -3 6 -8 3 -12 -8
-34 21 -26 34 4 6 3 10 -2 9 -21 -4 -33 2 -33 15 0 8 -9 18 -20 21 -26 8 -26
25 0 20 11 -2 18 0 15 5 -3 5 -15 7 -26 5 -13 -3 -30 5 -45 20 -24 24 -24 25
-7 57 9 18 23 47 29 63 7 17 21 54 33 83 19 48 20 53 5 59 -11 4 -22 -1 -30
-12 -8 -10 -14 -16 -14 -11 0 4 -11 -3 -24 -16 -25 -24 -79 -72 -115 -100 -11
-10 -21 -13 -21 -8 0 6 -7 10 -15 10 -8 0 -15 5 -15 12 0 6 -3 9 -6 5 -3 -3
-27 8 -54 24 -26 16 -52 29 -58 29 -6 0 -17 6 -25 14 -8 8 -23 16 -33 18 -10
2 -27 12 -37 23 -10 11 -16 14 -12 8 7 -15 -21 -18 -30 -3 -4 6 -10 8 -15 5
-5 -3 -11 -1 -15 5 -3 5 -15 10 -25 10 -23 0 -52 28 -44 42 4 7 2 8 -4 4 -6
-4 -8 -14 -5 -24 5 -14 4 -15 -8 -6 -8 6 -21 12 -29 13 -19 1 -63 9 -70 11 -3
1 -8 2 -12 1 -5 0 -8 4 -8 9 0 7 -6 7 -19 0 -14 -7 -22 -7 -26 0 -4 6 -11 8
-16 5 -5 -4 -9 -1 -9 6 0 8 -4 8 -12 1 -13 -9 -58 1 -58 13 0 4 6 3 13 -1 7
-5 7 -1 -2 10 -8 10 -16 25 -17 34 -5 39 -21 117 -24 117 -1 0 -4 14 -6 30
-14 89 -47 205 -58 205 -7 0 -19 -19 -26 -42z m-137 -410 c4 -9 8 -9 14 -3 12
15 35 17 31 3 -5 -13 -53 -26 -90 -24 -13 1 -26 -3 -30 -8 -4 -6 -13 -4 -24 5
-10 8 -15 9 -11 2 4 -6 3 -14 -2 -17 -5 -3 -11 1 -15 9 -7 18 -1 21 49 24 22
1 44 6 49 11 13 13 23 12 29 -2z m321 -4 c3 -7 -5 -11 -18 -11 -13 0 -23 5
-23 11 0 6 8 12 18 12 10 0 21 -6 23 -12z m56 -4 c0 9 3 10 13 1 8 -6 17 -8
20 -4 4 3 7 1 7 -7 0 -10 3 -10 14 -1 10 8 16 9 21 1 3 -5 18 -10 32 -10 14 0
32 -8 40 -17 8 -10 12 -12 8 -5 -10 20 23 14 34 -7 10 -18 8 -18 -29 -9 -22 6
-40 14 -40 18 0 5 -9 6 -20 3 -11 -3 -20 -1 -20 5 0 6 -13 9 -30 7 -16 -2 -32
1 -36 6 -4 6 -11 6 -19 -1 -9 -8 -17 -6 -29 5 -25 25 -19 37 9 19 18 -12 25
-13 25 -4z m-515 -19 c3 -5 1 -12 -5 -16 -5 -3 -10 1 -10 9 0 18 6 21 15 7z
m-25 -14 c0 -16 -74 -37 -92 -26 -7 4 -9 11 -5 16 5 4 12 2 16 -6 6 -10 10 -9
15 4 4 11 13 15 26 12 11 -3 20 -1 20 4 0 5 5 9 10 9 6 0 10 -6 10 -13z m180
-27 c-7 -4 -26 -6 -43 -5 -18 2 -36 0 -42 -3 -17 -11 -35 -11 -35 0 0 6 7 8
15 5 8 -4 17 -2 20 4 4 5 17 7 30 5 14 -3 27 -1 30 4 3 5 13 6 21 3 11 -4 12
-8 4 -13z m305 10 c3 -5 -1 -10 -9 -10 -9 0 -16 5 -16 10 0 6 4 10 9 10 6 0
13 -4 16 -10z m-622 -20 c-3 -12 -8 -19 -10 -16 -3 3 -12 -2 -20 -10 -9 -8
-22 -13 -29 -10 -8 3 -14 1 -14 -5 0 -6 -7 -9 -15 -5 -9 3 -15 0 -15 -10 0
-11 -6 -13 -21 -9 -13 4 -19 3 -16 -2 5 -8 -61 -48 -71 -44 -1 1 -10 -5 -18
-14 -17 -17 -49 -21 -39 -5 4 6 11 8 16 5 5 -4 9 0 9 8 0 13 33 31 53 28 4 -1
7 4 7 9 0 6 12 16 28 22 33 14 48 18 57 18 3 -1 13 6 21 15 19 18 38 20 28 3
-4 -7 5 -1 21 15 33 32 35 33 28 7z m732 4 c11 -1 20 -3 20 -4 0 -1 13 -4 30
-6 16 -3 32 -8 35 -12 5 -8 27 -14 48 -15 6 0 12 -4 12 -9 0 -5 5 -6 10 -3 6
3 10 1 10 -4 0 -14 -6 -14 -40 4 -17 9 -30 13 -30 10 0 -3 -9 -1 -21 5 -11 7
-33 14 -47 16 -15 3 -38 7 -52 10 -14 3 -35 6 -47 7 -13 1 -23 5 -23 9 0 4 17
5 38 2 20 -4 46 -8 57 -10z m195 -4 c0 12 2 13 9 1 5 -7 14 -11 20 -7 5 4 19
-2 30 -13 11 -11 22 -17 25 -13 4 3 13 -3 22 -14 8 -10 13 -13 9 -7 -4 9 -1
11 9 7 9 -3 16 -10 16 -15 0 -15 -25 -10 -67 11 -21 11 -50 24 -65 30 -16 5
-28 15 -28 22 0 9 3 8 10 -2 9 -13 10 -13 10 0z m-745 -10 c-3 -5 -19 -10 -36
-10 -16 0 -29 -5 -29 -11 0 -5 -4 -7 -10 -4 -5 3 -23 -1 -40 -10 -16 -8 -30
-11 -30 -6 0 10 92 43 143 50 5 0 5 -3 2 -9z m131 -44 c-15 -83 -19 -96 -34
-108 -8 -7 -18 -12 -21 -11 -3 2 -21 -2 -40 -7 -19 -5 -38 -7 -43 -4 -4 3 -8
0 -8 -5 0 -6 -5 -11 -11 -11 -5 0 -7 6 -3 13 4 6 3 8 -1 4 -16 -14 -14 -36 3
-30 10 4 13 2 8 -5 -4 -7 -1 -12 8 -12 22 0 88 -69 84 -88 -2 -8 -12 -16 -23
-18 -11 -1 -30 -5 -43 -8 -20 -4 -22 -2 -17 17 4 15 3 18 -3 9 -7 -11 -11 -8
-17 10 -4 12 -7 27 -6 31 1 5 -3 6 -9 2 -6 -3 -8 -11 -5 -16 4 -5 1 -9 -4 -9
-6 0 -11 -9 -11 -20 0 -11 5 -20 11 -20 5 0 7 5 4 10 -3 6 -3 15 1 22 5 8 10
6 15 -8 13 -33 10 -42 -11 -37 -12 3 -20 0 -20 -7 0 -7 -6 -10 -13 -7 -7 3
-21 -1 -32 -9 -10 -8 -22 -14 -25 -14 -13 0 -50 38 -51 51 0 10 -2 11 -6 2 -4
-10 -7 -10 -17 0 -7 6 -34 30 -59 51 -25 22 -43 44 -40 49 3 6 2 7 -4 4 -10
-6 -53 19 -53 31 0 4 12 13 27 19 21 10 30 10 42 0 14 -10 14 -10 4 4 -7 9
-10 19 -6 22 10 11 45 8 38 -2 -3 -5 -1 -12 4 -15 5 -4 8 2 6 11 -3 21 13 45
25 38 5 -3 12 -1 15 5 5 8 11 7 21 -1 12 -10 13 -9 8 5 -4 9 -3 16 2 15 5 -2
27 5 48 14 31 14 41 15 48 5 5 -9 8 -8 8 5 0 10 4 16 9 13 5 -4 12 0 14 6 3 7
6 4 6 -6 1 -18 2 -18 14 -4 16 20 51 33 42 15 -4 -6 1 -3 9 7 15 18 21 15 16
-9 -1 -5 8 -1 19 9 12 11 21 14 21 8 0 -7 4 -12 10 -12 5 0 7 6 5 13 -3 7 4
13 21 13 23 2 25 -1 20 -30z m324 22 c0 6 5 12 11 12 5 0 8 -3 6 -7 -3 -5 5
-9 16 -10 67 -7 107 -16 107 -24 0 -5 3 -8 8 -8 21 4 42 -2 37 -10 -3 -5 0
-13 6 -17 7 -4 9 -3 5 4 -3 6 -2 13 4 17 5 3 10 1 10 -6 0 -6 8 -9 20 -6 11 3
18 1 14 -4 -3 -5 2 -9 10 -9 37 0 66 -15 62 -33 -1 -6 -1 -9 1 -4 3 4 11 7 19
7 9 0 12 -5 8 -11 -4 -7 -1 -10 7 -7 19 7 109 -41 109 -57 0 -7 -12 -21 -27
-31 -16 -9 -33 -24 -39 -32 -7 -9 -16 -12 -24 -7 -8 5 -11 4 -7 -2 9 -14 -19
-37 -34 -27 -8 4 -9 3 -5 -5 8 -12 -18 -44 -28 -34 -3 4 -6 1 -6 -6 0 -7 -4
-9 -10 -6 -5 3 -10 -2 -10 -11 0 -10 -3 -14 -7 -11 -3 4 -13 1 -21 -6 -12 -9
-16 -9 -19 1 -3 6 -9 10 -14 6 -5 -3 -9 2 -9 10 0 9 -5 16 -11 16 -5 0 -7 -5
-3 -12 5 -8 2 -9 -12 -4 -18 7 -64 16 -91 18 -10 1 -10 5 -1 15 9 11 13 12 19
1 7 -10 9 -9 9 5 0 21 -4 21 -35 1 -15 -10 -29 -13 -39 -7 -14 7 -13 13 5 42
11 18 28 35 39 38 10 3 21 12 24 20 4 9 13 12 28 8 20 -5 21 -4 6 5 -10 6 -18
17 -18 24 0 8 -6 14 -12 13 -46 -1 -60 4 -54 19 5 13 4 14 -7 6 -7 -6 -23 -9
-35 -6 -16 5 -23 16 -28 50 -3 24 -10 44 -14 44 -5 0 -3 11 3 24 8 16 14 21
19 13 6 -9 8 -9 8 1z m-610 -18 c0 -5 -7 -10 -15 -10 -8 0 -15 -4 -15 -9 0
-11 -26 -8 -37 4 -4 4 -3 6 2 2 6 -3 21 1 35 9 31 16 30 16 30 4z m910 -11 c0
-5 5 -7 12 -3 7 4 8 3 4 -4 -5 -9 -13 -9 -27 -2 -23 13 -24 20 -4 20 8 0 15
-5 15 -11z m163 -22 c-4 -6 0 -8 10 -4 8 3 21 -1 27 -8 7 -8 16 -13 20 -10 12
8 30 -19 21 -33 -6 -10 -11 -9 -21 3 -7 8 -29 23 -49 32 -45 21 -44 20 -37 32
4 6 13 8 21 5 8 -4 12 -11 8 -17z m-1183 -15 c0 -5 -11 -14 -25 -20 -14 -6
-25 -8 -25 -4 0 6 9 12 48 31 1 0 2 -3 2 -7z m1110 -8 c0 5 7 3 15 -4 8 -7 15
-9 15 -4 0 5 5 1 11 -9 6 -10 8 -21 5 -24 -3 -4 -6 -1 -6 5 0 7 -7 12 -15 12
-8 0 -15 5 -15 10 0 6 -3 9 -7 9 -21 -3 -33 2 -27 12 4 8 9 7 15 -2 5 -8 9
-10 9 -5z m-1198 -46 c-7 -7 -12 -8 -12 -2 0 14 12 26 19 19 2 -3 -1 -11 -7
-17z m1265 0 c-3 -8 -6 -5 -6 6 -1 11 2 17 5 13 3 -3 4 -12 1 -19z m-1494 -92
c4 -10 1 -13 -9 -9 -10 4 -12 0 -7 -13 5 -13 3 -16 -10 -11 -11 4 -17 1 -17
-8 0 -8 -11 -22 -24 -30 -13 -9 -26 -25 -29 -36 -3 -12 -10 -18 -16 -14 -6 3
-11 0 -11 -8 0 -19 -34 -49 -45 -40 -4 5 -6 1 -2 -8 5 -14 -4 -28 -52 -85 -5
-7 -7 -15 -3 -20 4 -4 1 -4 -5 0 -7 4 -13 2 -13 -4 0 -6 -5 -8 -11 -4 -8 5 -8
9 1 14 6 4 11 10 11 14 -1 16 13 36 26 36 8 0 12 4 8 10 -3 5 1 17 9 27 8 10
28 34 43 54 16 20 34 34 41 31 6 -2 12 3 12 12 0 18 35 57 44 49 3 -4 6 -1 6
6 0 7 10 21 23 32 27 22 24 22 30 5z m1757 -17 c0 -15 4 -19 16 -15 12 4 15 2
11 -9 -4 -8 -1 -17 5 -21 7 -4 8 -3 4 4 -14 23 5 11 34 -20 16 -18 28 -38 25
-45 -2 -7 2 -10 11 -6 9 3 14 -1 14 -12 0 -9 5 -13 10 -10 6 3 10 -4 10 -16 0
-12 3 -19 6 -16 7 7 29 -19 64 -78 l24 -40 -22 15 c-13 8 -24 19 -25 25 -1 5
-11 19 -22 30 -11 12 -27 32 -35 45 -8 13 -23 30 -32 39 -10 8 -18 21 -18 28
0 7 -5 13 -11 13 -17 0 -91 79 -84 90 3 6 -2 7 -12 4 -15 -5 -16 -4 -3 5 22
16 30 13 30 -10z m-1744 -41 c-1 -13 -5 -21 -7 -18 -7 8 -37 -24 -31 -34 3 -5
0 -6 -6 -2 -6 3 -13 -2 -17 -13 -8 -28 -41 -55 -50 -41 -4 7 2 14 15 17 14 4
19 11 15 22 -3 8 -3 12 1 9 4 -4 16 5 28 20 23 29 50 60 53 61 2 1 1 -9 -1
-21z m1765 -55 c19 -21 37 -42 39 -48 3 -5 17 -20 32 -33 17 -15 25 -29 21
-39 -5 -12 -3 -14 7 -8 8 5 11 4 7 -2 -3 -5 3 -16 14 -23 10 -8 19 -20 19 -28
0 -7 5 -10 12 -6 6 4 8 3 5 -3 -4 -6 0 -16 8 -23 8 -7 15 -21 15 -31 0 -11 5
-19 10 -19 6 0 10 -8 10 -17 0 -15 -2 -14 -15 3 -8 10 -15 27 -15 37 0 12 -4
16 -12 11 -7 -4 -10 -4 -6 0 4 5 3 13 -3 20 -43 51 -91 116 -93 123 0 4 -19
25 -41 45 -22 21 -40 43 -40 48 0 6 -4 10 -10 11 -14 1 -35 20 -35 31 0 15 33
-7 71 -49z m-1736 17 c-3 -5 -1 -10 5 -10 7 0 9 -8 5 -20 -4 -13 -2 -20 5 -18
7 2 15 -3 17 -9 6 -18 -17 -16 -37 2 -15 14 -17 13 -15 -2 1 -10 6 -27 12 -38
6 -11 12 -24 13 -30 1 -5 11 -27 22 -49 12 -24 15 -35 6 -30 -7 4 -6 -1 3 -12
22 -26 61 -104 52 -104 -4 0 -2 -5 4 -11 9 -9 6 -19 -9 -40 -12 -15 -25 -26
-29 -23 -4 2 -10 0 -14 -6 -3 -5 0 -10 7 -10 9 0 9 -3 -2 -10 -13 -9 -13 -10
0 -10 9 0 11 -3 5 -8 -5 -4 -10 -14 -10 -22 0 -8 -5 -14 -12 -13 -6 2 -11 -6
-10 -17 2 -23 6 -25 21 -7 6 7 10 10 9 8 -2 -2 1 -9 6 -15 7 -8 -6 -11 -44
-11 -29 -1 -52 3 -49 7 2 4 -3 11 -12 16 -10 6 -13 12 -6 16 6 3 18 -4 26 -16
9 -12 17 -17 17 -10 1 6 3 17 4 22 1 6 3 16 4 23 1 9 4 8 10 -2 6 -9 8 -4 7
18 0 17 -5 31 -10 31 -6 0 -2 6 9 13 10 8 15 19 11 25 -8 14 4 43 16 36 5 -4
5 -10 -1 -18 -5 -6 -6 -18 -2 -25 6 -10 10 -8 16 6 5 10 9 20 9 23 1 3 5 11 9
18 5 7 3 12 -4 12 -8 0 -9 4 0 13 8 10 7 14 -4 14 -8 0 -13 -3 -10 -5 3 -3 -7
-13 -22 -23 -20 -14 -31 -15 -46 -7 -11 5 -17 6 -15 1 6 -11 -39 -53 -47 -44
-4 3 -5 2 -4 -4 6 -20 -21 -54 -39 -49 -13 5 -14 4 -3 -4 9 -7 10 -12 2 -16
-6 -4 -11 -12 -11 -18 0 -5 9 0 19 13 l20 24 -2 -22 c-1 -13 -4 -23 -7 -23 -3
0 -15 -7 -26 -16 -18 -15 -18 -15 3 -5 14 7 24 7 28 1 3 -5 12 -7 19 -4 8 3
17 1 20 -4 3 -5 -18 -9 -49 -9 -30 1 -52 4 -49 9 3 4 0 8 -6 8 -6 0 -8 5 -4
12 4 7 3 8 -4 4 -6 -4 -8 -14 -5 -23 5 -12 3 -14 -7 -8 -7 4 -34 9 -59 10
-101 5 -98 5 -78 16 9 5 17 15 17 22 0 7 -4 6 -10 -3 -5 -8 -10 -10 -10 -5 1
6 7 19 15 29 8 11 15 27 15 37 0 9 7 22 15 29 9 7 13 20 10 28 -4 12 -3 13 9
3 13 -11 14 -9 10 13 -3 21 -1 24 13 19 15 -6 16 -4 6 9 -13 15 -8 28 9 28 5
0 6 -5 2 -12 -4 -7 -3 -8 5 -4 9 6 9 11 -1 24 -11 13 -11 14 0 8 9 -5 12 -3
10 6 -2 7 2 14 7 15 6 1 12 12 15 25 3 12 16 28 29 34 12 7 18 13 12 15 -6 2
9 27 34 54 24 28 45 53 45 58 0 4 5 7 11 7 8 0 7 -5 -1 -15 -7 -9 -10 -18 -6
-22 3 -3 6 -1 6 6 0 7 4 10 9 7 5 -4 8 2 6 11 -1 10 7 28 18 41 21 23 33 29
22 12z m1679 -29 c16 -16 25 -34 21 -40 -3 -7 -3 -11 2 -10 19 3 33 -2 33 -12
0 -5 -5 -7 -12 -3 -7 4 -8 3 -4 -4 4 -6 14 -8 22 -5 14 5 15 3 4 -18 -12 -21
-11 -23 2 -11 13 10 18 9 28 -3 7 -8 10 -15 6 -15 -3 0 3 -9 14 -20 12 -12 18
-26 14 -32 -5 -7 -3 -8 5 -4 8 5 14 0 18 -13 3 -12 9 -21 14 -21 5 0 9 -5 9
-11 0 -5 -4 -8 -8 -5 -5 3 -9 -1 -9 -8 0 -7 7 -13 16 -12 8 1 25 -17 38 -39
23 -41 30 -71 14 -60 -5 3 -12 1 -16 -4 -3 -6 3 -8 15 -6 13 2 24 -4 32 -18
10 -21 10 -21 -7 -7 -17 14 -17 14 -5 -7 8 -12 17 -20 21 -17 6 3 21 -48 15
-53 -1 -1 -18 -4 -37 -5 -29 -3 -34 0 -33 18 1 11 -5 21 -12 21 -7 0 -10 -5
-6 -11 16 -26 10 -38 -14 -33 -13 2 -27 1 -30 -4 -2 -5 -16 -4 -30 1 -17 7
-23 7 -19 0 4 -6 -14 -10 -47 -11 -97 -2 -113 -4 -127 -13 -10 -6 -12 -6 -7 2
4 7 3 12 -3 12 -5 0 -12 -6 -15 -12 -3 -7 -3 -2 1 12 3 14 6 33 5 42 0 10 4
21 10 24 7 4 8 2 4 -5 -4 -6 2 -23 13 -37 12 -15 21 -21 21 -14 0 9 4 9 13 2
7 -6 20 -6 32 -1 18 8 18 8 -4 6 -13 -1 -26 4 -28 11 -3 8 2 10 14 6 10 -3 14
-2 8 3 -5 4 -11 14 -12 20 -2 7 -17 27 -35 43 -26 26 -30 33 -18 40 8 6 11 10
5 10 -5 0 -16 -4 -24 -9 -12 -8 -9 -14 16 -35 21 -18 30 -34 30 -55 0 -25 -3
-28 -14 -19 -7 6 -11 19 -8 29 5 14 1 19 -11 19 -10 0 -15 3 -11 6 6 6 -2 18
-38 58 -19 21 -20 24 -4 49 8 15 19 24 23 20 4 -4 5 5 2 20 -3 16 1 30 9 34 7
5 15 17 17 28 2 11 10 19 17 17 7 -1 9 2 6 8 -4 6 1 28 11 48 10 20 19 42 20
47 1 6 3 17 5 25 5 18 -32 15 -43 -3 -13 -20 -9 2 6 38 8 19 19 35 24 35 4 0
21 -13 36 -29z m-1834 -71 c-8 -6 -10 -10 -5 -10 6 0 -1 -10 -15 -23 -14 -12
-31 -34 -39 -49 -8 -15 -24 -38 -35 -50 -12 -12 -20 -25 -20 -28 3 -11 -20
-50 -29 -50 -5 0 -4 7 3 15 7 8 9 15 4 15 -5 0 -2 5 6 10 8 5 15 13 15 17 0 4
10 22 22 39 12 17 19 35 15 39 -4 5 -1 5 6 1 6 -4 12 -2 12 4 0 17 61 92 68
85 4 -3 0 -10 -8 -15z m-160 -151 c-6 -10 -15 -19 -20 -19 -6 0 -10 -5 -10
-11 0 -5 5 -7 12 -3 7 4 8 3 4 -5 -4 -6 -11 -9 -16 -6 -5 3 -11 1 -15 -5 -3
-5 -1 -10 4 -10 12 0 -6 -39 -24 -52 -5 -4 -7 -8 -2 -8 8 0 -20 -60 -28 -60
-6 0 0 37 10 63 4 9 11 17 15 17 5 0 9 8 8 18 0 20 33 85 47 92 6 3 9 9 7 13
-1 5 2 6 8 2 7 -4 7 -12 0 -26z m2322 -54 c22 -41 35 -78 31 -89 -3 -12 -1
-16 6 -12 6 4 11 3 11 -3 0 -5 -4 -12 -9 -15 -8 -5 -15 4 -21 29 -1 6 -8 18
-15 29 -8 10 -11 25 -8 34 4 10 2 13 -5 8 -11 -7 -28 29 -23 53 1 7 -2 10 -8
6 -6 -3 -11 -4 -11 -1 0 2 -3 12 -6 21 -4 10 -2 15 7 13 8 -2 31 -34 51 -73z
m-1952 -25 c0 -5 -2 -10 -4 -10 -3 0 -8 5 -11 10 -3 6 -1 10 4 10 6 0 11 -4
11 -10z m-378 -49 c-10 -20 -20 -38 -25 -39 -4 -2 -5 -8 -2 -12 3 -5 2 -11 -3
-14 -4 -2 -9 4 -9 15 -1 10 2 19 6 19 10 0 33 49 27 59 -3 4 1 8 8 8 11 0 11
-7 -2 -36z m326 22 c-7 -9 -7 -13 1 -13 6 0 11 -5 11 -11 0 -5 -4 -7 -10 -4
-10 6 -15 -9 -10 -30 1 -5 2 -14 3 -20 1 -5 -10 -10 -26 -10 -15 -1 -26 4 -24
10 2 5 9 10 15 10 7 0 11 5 10 10 -2 6 -7 9 -11 7 -5 -1 -7 3 -5 10 3 7 10 13
16 13 7 0 12 3 12 8 0 4 0 12 0 18 0 25 -55 -57 -56 -84 -1 -20 1 -25 7 -16 6
10 9 10 9 2 0 -7 -9 -17 -19 -23 -17 -8 -20 -7 -18 10 1 11 5 20 10 20 5 0 4
6 -2 14 -9 11 -6 21 16 47 34 42 42 48 64 46 14 -1 15 -4 7 -14z m1967 -13
c-3 -5 -1 -11 5 -15 6 -4 8 -11 5 -16 -4 -5 -1 -9 5 -9 6 0 8 -4 5 -10 -3 -5
-1 -10 5 -10 6 0 8 -5 4 -11 -7 -12 -23 9 -29 39 -2 10 -4 18 -5 20 -2 1 -3 5
-4 10 -1 4 -5 14 -11 22 -8 13 -7 13 8 1 9 -7 15 -17 12 -21z m-2015 -44 c0
-3 -4 -8 -10 -11 -5 -3 -10 -1 -10 4 0 6 5 11 10 11 6 0 10 -2 10 -4z m-373
-62 c-9 -9 -28 6 -21 18 4 6 10 6 17 -1 6 -6 8 -13 4 -17z m399 2 c2 -14 0
-15 -12 -5 -17 14 -19 32 -2 27 6 -2 12 -12 14 -22z m1674 20 c0 -3 -4 -8 -10
-11 -5 -3 -10 -1 -10 4 0 6 5 11 10 11 6 0 10 -2 10 -4z m416 -5 c-4 -5 0 -11
6 -14 7 -3 3 -4 -8 -4 -21 1 -23 27 -2 27 5 0 7 -4 4 -9z m57 -201 c3 -11 1
-20 -4 -20 -5 0 -9 -7 -9 -15 0 -8 5 -15 10 -15 6 0 10 -7 10 -15 0 -8 -6 -12
-14 -9 -10 4 -14 18 -12 44 2 22 -1 37 -5 34 -5 -3 -6 2 -3 10 7 20 20 13 27
-14z m-2593 0 c0 -11 -6 -20 -12 -20 -9 0 -8 -4 2 -11 11 -7 12 -12 3 -15 -7
-3 -9 -12 -6 -20 4 -10 0 -12 -11 -8 -9 3 -13 11 -8 18 4 6 8 20 8 31 3 40 4
45 14 45 6 0 10 -9 10 -20z m295 -10 c3 -5 -4 -6 -15 -3 -11 3 -22 9 -25 13
-3 5 4 6 15 3 11 -3 22 -9 25 -13z m2011 5 c-11 -8 -25 -15 -30 -15 -6 1 0 7
14 15 32 19 40 18 16 0z m231 -22 c-4 -3 -2 -12 5 -20 8 -11 7 -12 -6 -7 -18
7 -22 34 -4 34 6 0 8 -3 5 -7z m-2541 -401 c0 -10 -6 -19 -12 -19 -7 0 -12 9
-11 19 1 10 6 18 12 18 6 0 11 -8 11 -18z m2538 -4 c-4 -13 -7 -33 -6 -45 1
-13 -2 -23 -7 -23 -4 0 -7 11 -6 24 4 31 15 66 21 66 3 0 2 -10 -2 -22z m57
-21 c-6 -6 -11 -9 -12 -6 0 2 -2 14 -5 27 -4 22 -3 22 12 7 13 -12 14 -19 5
-28z m-2485 25 c-3 -5 1 -9 9 -9 8 0 12 4 9 9 -3 4 0 8 5 8 11 0 15 -13 12
-37 -1 -7 3 -13 8 -13 5 0 8 9 6 21 -4 18 -1 20 18 15 12 -4 38 -9 57 -12 63
-9 75 -11 75 -14 0 -2 24 -6 72 -12 7 -1 10 -5 7 -10 -3 -5 -13 -7 -22 -6 -10
2 -16 -3 -14 -10 1 -8 -2 -11 -8 -7 -5 3 -10 2 -10 -4 0 -6 -7 -8 -15 -5 -15
6 -21 25 -7 23 20 -3 32 2 26 12 -4 8 -9 7 -15 -2 -7 -11 -9 -11 -9 1 0 13 -1
13 -10 0 -5 -8 -10 -10 -10 -4 0 21 -26 23 -27 2 -1 -14 3 -18 13 -14 9 4 14
1 12 -6 -2 -6 -13 -13 -25 -14 -16 -3 -20 1 -18 20 5 38 -9 49 -30 26 -10 -11
-14 -20 -9 -20 5 0 3 -4 -5 -9 -8 -5 -16 -17 -17 -25 -1 -9 2 -14 7 -10 5 3 7
9 4 14 -3 4 2 11 10 14 8 3 14 11 13 17 -2 6 2 13 7 15 6 2 11 -5 12 -16 1
-11 -4 -20 -10 -20 -7 -1 -1 -7 13 -15 21 -12 27 -11 41 1 15 13 17 13 23 -3
4 -9 4 -14 0 -10 -4 4 -19 -3 -33 -15 -14 -13 -23 -19 -19 -14 10 12 -29 39
-42 31 -6 -4 -8 -11 -5 -16 4 -5 0 -9 -7 -9 -8 0 -6 -5 5 -11 25 -15 21 -28
-8 -24 -14 1 -28 -2 -32 -8 -3 -6 -1 -7 5 -3 6 3 13 3 15 -2 8 -12 -40 -30
-55 -21 -10 7 -10 9 2 9 12 1 11 3 -3 11 -15 9 -16 13 -5 27 8 10 9 13 1 9 -6
-4 -14 -3 -18 3 -3 5 -1 10 4 10 6 0 11 5 11 11 0 5 -6 7 -12 3 -7 -4 -10 -4
-6 1 4 4 3 14 -2 21 -12 14 -10 36 5 46 6 4 2 8 -8 8 -10 0 -16 4 -12 9 3 5 0
13 -6 17 -8 4 -7 9 2 15 18 11 32 11 25 1z m2382 -12 c3 -7 0 -10 -6 -6 -6 4
-8 -1 -5 -13 4 -16 0 -18 -26 -16 -17 1 -33 -1 -36 -5 -3 -4 9 -6 25 -5 17 1
33 -1 36 -6 3 -5 1 -9 -4 -9 -6 0 -8 -9 -5 -20 3 -12 0 -20 -6 -20 -7 0 -9 -5
-6 -10 4 -6 1 -17 -5 -25 -10 -11 -10 -15 -1 -15 7 0 10 -4 6 -10 -3 -5 -13
-7 -23 -4 -13 5 -14 4 -3 -4 17 -12 6 -33 -14 -26 -8 4 -12 10 -9 15 3 5 -2 6
-10 3 -11 -4 -16 0 -16 12 0 9 -3 14 -6 11 -4 -3 -16 -1 -27 5 -20 10 -20 11
-2 24 10 8 14 14 9 14 -6 0 -15 -5 -21 -11 -11 -11 -53 7 -53 23 0 5 -6 8 -14
8 -7 0 -19 7 -26 15 -7 8 -15 13 -19 11 -3 -1 -14 5 -23 16 -10 10 -15 18 -10
19 4 0 17 2 29 3 13 2 20 -2 16 -8 -4 -6 3 -3 15 8 19 16 24 17 39 5 14 -12
16 -12 8 0 -6 11 -3 13 13 9 12 -4 20 -2 16 3 -3 5 0 9 5 9 6 0 11 -5 11 -11
0 -8 5 -7 16 2 8 7 32 14 52 16 20 2 38 6 40 8 8 7 36 -3 40 -15z m-2440 -7
c-1 -24 10 -76 22 -107 5 -15 7 -26 4 -26 -2 0 1 -10 8 -22 16 -31 20 -58 8
-58 -6 0 -9 3 -9 8 1 4 0 9 -1 12 -1 3 -4 14 -6 25 -8 33 -12 50 -14 53 -3 2
-3 5 -13 47 -13 60 -15 85 -7 85 5 0 8 -8 8 -17z m-43 -55 c4 -13 7 -27 6 -32
-1 -4 4 -14 10 -22 9 -11 8 -14 -1 -14 -9 0 -7 -7 5 -20 10 -11 15 -23 12 -26
-3 -4 1 -20 9 -36 11 -22 13 -33 5 -41 -8 -8 -11 -8 -12 1 -2 14 -4 22 -11 42
-18 46 -27 83 -22 91 3 5 1 9 -5 9 -5 0 -8 9 -6 20 2 11 0 20 -4 20 -4 0 -8 7
-8 15 0 23 14 18 22 -7z m2581 10 c4 -7 3 -8 -5 -4 -8 5 -10 0 -7 -17 3 -16
-1 -24 -10 -24 -16 0 -15 37 1 49 13 10 13 10 21 -4z m-70 -40 c-3 -13 -5 -23
-6 -23 -2 0 -11 -38 -12 -52 -1 -7 -5 -13 -10 -13 -5 0 -7 -4 -4 -9 3 -4 -1
-17 -9 -27 -8 -10 -15 -14 -15 -8 0 5 5 15 12 22 7 7 9 12 5 12 -4 0 -3 9 3
21 11 20 22 61 23 87 0 6 4 12 9 12 4 0 6 -10 4 -22z m-2278 -32 c3 -11 -1
-17 -9 -14 -7 2 -13 12 -15 22 -3 23 20 15 24 -8z m2332 4 c-8 -5 -11 -10 -7
-10 5 0 1 -7 -8 -16 -12 -12 -13 -19 -5 -24 9 -5 9 -9 1 -14 -6 -4 -11 -14
-11 -23 0 -9 -8 -22 -17 -30 -10 -8 -12 -12 -5 -8 6 3 12 1 12 -4 0 -15 -17
-14 -26 1 -4 6 -1 16 7 22 8 6 15 18 15 26 1 17 14 71 21 83 2 4 12 7 21 7 15
0 15 -2 2 -10z m-1940 -115 c0 -1 -6 -7 -13 -13 -10 -8 -13 -6 -13 7 0 11 6
17 13 14 7 -3 13 -6 13 -8z m1358 -16 c-7 -5 -10 -9 -6 -9 3 0 14 -3 23 -6 10
-4 15 -2 13 7 -2 8 3 12 12 10 8 -2 22 -5 30 -6 8 -2 15 -4 15 -5 0 -2 38 -11
53 -12 8 -1 10 -9 6 -22 -6 -20 -6 -20 8 -2 12 15 17 16 23 6 5 -8 4 -11 -3
-6 -11 7 -8 -31 3 -42 10 -11 35 -10 35 0 0 6 -6 8 -14 5 -19 -7 -26 13 -12
35 9 15 12 15 38 -3 15 -11 28 -16 28 -10 0 5 12 4 28 -4 15 -8 40 -16 56 -19
31 -6 60 -26 37 -26 -7 0 -9 -4 -6 -10 3 -5 1 -10 -5 -10 -6 0 -8 -5 -5 -10 4
-6 1 -17 -5 -26 -10 -12 -16 -12 -29 -2 -14 12 -15 11 -1 -6 12 -15 12 -20 2
-23 -6 -3 -9 -10 -6 -15 4 -7 2 -8 -4 -4 -7 4 -13 2 -13 -3 -1 -6 -2 -15 -3
-20 -4 -27 -96 -127 -114 -123 -8 2 -11 -1 -7 -8 3 -6 -4 -23 -18 -39 -19 -24
-27 -27 -43 -18 -17 9 -17 9 -6 -5 7 -9 9 -19 4 -22 -5 -3 -17 14 -26 37 -20
52 -20 68 -1 43 10 -13 15 -15 15 -6 0 9 5 8 16 -6 8 -10 13 -13 9 -6 -3 6 -2
12 4 12 6 0 7 7 4 17 -5 12 -3 14 8 9 8 -4 6 -1 -4 7 -24 20 -85 148 -79 166
3 8 0 11 -6 7 -7 -4 -9 1 -7 14 2 11 0 20 -5 20 -5 0 -19 22 -31 50 -13 31
-26 47 -33 43 -7 -5 -7 -2 1 8 6 8 10 27 9 42 -3 22 -1 25 11 15 11 -9 11 -13
1 -19z m-1403 3 c-3 -3 -11 0 -18 7 -9 10 -8 11 6 5 10 -3 15 -9 12 -12z
m1375 8 c0 -5 -2 -10 -4 -10 -3 0 -8 5 -11 10 -3 6 -1 10 4 10 6 0 11 -4 11
-10z m-1400 -21 c0 -6 -5 -7 -11 -3 -8 4 -9 -1 -5 -17 l7 -24 -14 24 c-9 14
-17 19 -21 13 -3 -6 -1 -14 5 -17 5 -4 8 -13 5 -21 -8 -20 22 -30 46 -15 17
10 17 10 6 -8 -6 -10 -17 -17 -23 -15 -6 3 -11 -5 -12 -17 -2 -18 0 -19 15 -7
12 9 11 6 -3 -12 -11 -14 -21 -27 -22 -29 -1 -2 -9 1 -17 8 -11 9 -15 7 -19
-9 -4 -17 -1 -19 21 -15 24 4 24 3 9 -12 -27 -27 -56 8 -35 42 3 6 0 18 -7 28
-7 10 -15 14 -17 10 -3 -4 -3 -2 -1 5 2 8 -2 10 -10 6 -7 -5 -6 0 3 12 13 17
13 18 0 9 -9 -5 -8 -2 2 7 10 9 28 15 39 13 13 -3 19 0 16 8 -3 7 -10 11 -16
10 -16 -4 -14 8 5 21 20 15 54 18 54 5z m-80 -20 c0 -6 -11 -20 -25 -31 -23
-18 -24 -20 -9 -44 9 -13 21 -21 26 -18 6 4 8 -6 5 -25 -4 -24 0 -35 19 -50
15 -12 20 -22 14 -26 -5 -3 -13 1 -16 10 -6 14 -9 14 -16 3 -7 -10 -8 -8 -4 5
3 10 2 15 -4 12 -10 -6 -9 -33 3 -51 4 -7 6 -24 5 -38 -2 -21 -6 -25 -23 -20
-20 6 -20 6 0 -10 20 -17 20 -17 -2 -11 -12 3 -25 1 -29 -6 -4 -8 -3 -9 4 -5
19 12 35 -4 21 -20 -6 -8 -10 -15 -8 -17 2 -1 13 -7 24 -13 27 -15 32 -51 8
-56 -24 -6 -95 70 -87 94 2 9 0 19 -5 23 -6 3 -8 0 -5 -8 3 -8 0 -18 -7 -23
-7 -4 -10 -3 -5 4 3 6 2 13 -3 17 -6 3 -8 13 -5 23 5 14 4 15 -5 2 -9 -13 -13
-12 -26 7 -8 12 -22 29 -31 38 -8 8 -11 15 -6 15 6 0 19 -12 30 -27 14 -19 21
-23 27 -13 5 8 4 11 -3 6 -6 -3 -13 2 -16 11 -3 10 -19 26 -36 35 -16 9 -30
24 -30 33 0 8 -3 15 -7 15 -12 0 -33 52 -26 63 3 6 1 7 -5 3 -6 -3 -15 2 -21
12 -8 14 -6 19 5 19 7 0 14 -5 14 -11 0 -5 6 -3 13 6 14 18 75 40 88 32 5 -3
9 -1 9 4 0 5 7 9 15 9 8 0 15 -6 15 -14 0 -7 -3 -12 -7 -12 -20 3 -33 -2 -33
-12 0 -8 6 -7 16 2 15 12 16 11 10 -9 -6 -17 -4 -23 6 -21 37 5 49 -1 43 -21
-4 -12 -2 -20 5 -20 6 0 9 -4 5 -10 -10 -16 -34 0 -30 21 4 22 -10 26 -19 4
-3 -8 3 -20 14 -28 11 -8 17 -18 12 -23 -4 -5 5 1 19 14 30 26 45 16 33 -21
-5 -12 -8 -25 -9 -29 -1 -15 -15 -20 -15 -5 0 19 -15 23 -26 5 -4 -6 -3 -8 3
-5 6 4 14 0 17 -8 5 -13 9 -13 26 -3 11 7 18 19 15 26 -3 7 0 22 5 33 7 12 7
19 1 19 -6 0 -8 7 -5 15 4 8 11 12 17 8 5 -3 7 -2 4 4 -4 6 -18 9 -31 8 -15
-2 -27 3 -30 12 -4 11 -2 13 9 10 8 -4 17 -1 21 5 4 7 3 8 -4 4 -7 -4 -10 1
-7 14 2 12 0 18 -6 14 -5 -3 -18 0 -27 8 -16 12 -16 11 -2 -6 13 -17 13 -19 0
-14 -18 6 -22 45 -6 51 6 2 23 3 39 2 15 -1 27 2 27 7 0 4 7 8 15 8 8 0 15 -5
15 -11z m117 5 c-3 -3 -12 -4 -19 -1 -8 3 -5 6 6 6 11 1 17 -2 13 -5z m-27
-29 c-7 -8 -17 -15 -22 -15 -11 0 14 29 26 30 5 0 3 -7 -4 -15z m-164 -39 c11
4 15 3 11 -1 -4 -5 -21 -10 -37 -11 -21 -1 -27 2 -23 12 4 10 9 12 18 4 7 -6
21 -7 31 -4z m2004 -26 c-8 -5 -12 -10 -7 -10 4 0 1 -10 -8 -23 -8 -13 -12
-27 -8 -31 4 -4 -1 -4 -12 0 -11 5 -14 9 -7 12 7 2 12 10 12 18 0 8 5 14 10
14 6 0 9 3 9 8 -3 15 1 22 14 22 8 0 7 -4 -3 -10z m55 -10 c3 -5 1 -10 -4 -10
-6 0 -11 5 -11 10 0 6 2 10 4 10 3 0 8 -4 11 -10z m-2348 -6 c-3 -3 -12 -4
-19 -1 -8 3 -5 6 6 6 11 1 17 -2 13 -5z m58 -4 c-3 -6 1 -13 9 -16 9 -3 14
-10 11 -14 -3 -5 1 -14 8 -22 31 -31 48 -66 36 -74 -8 -4 -9 -3 -5 4 4 7 2 12
-4 12 -6 0 -9 4 -6 9 4 5 2 11 -2 13 -9 3 -62 83 -62 93 0 3 5 5 11 5 5 0 7
-5 4 -10z m261 -12 c3 -4 -1 -5 -10 -4 -8 1 -18 5 -22 8 -3 4 1 5 10 4 8 -1
18 -5 22 -8z m-300 -17 c-3 -5 6 -21 19 -35 14 -15 25 -34 25 -42 0 -7 4 -14
8 -14 9 0 40 -50 40 -64 0 -5 13 -17 29 -27 15 -10 22 -19 14 -19 -9 0 -1 -11
17 -26 18 -15 32 -34 32 -42 0 -8 3 -12 6 -9 9 9 100 -83 96 -96 -2 -5 5 -6
15 -3 14 6 15 5 6 -5 -10 -10 -18 -8 -38 11 -14 13 -25 30 -25 38 0 9 -3 12
-7 9 -7 -8 -98 83 -133 133 -13 19 -30 39 -37 43 -7 5 -11 12 -8 18 3 5 -5 20
-19 34 -13 13 -27 34 -31 45 -3 11 -11 20 -16 20 -6 0 -7 5 -4 10 3 6 0 10 -7
10 -9 0 -9 3 2 10 19 12 23 12 16 1z m2309 -11 c3 -5 -2 -10 -12 -11 -10 0
-13 -3 -6 -6 9 -3 8 -11 -5 -31 -9 -15 -21 -30 -27 -34 -5 -4 -6 -8 -1 -8 5 0
1 -9 -9 -20 -10 -11 -22 -17 -27 -14 -5 3 -8 0 -6 -8 3 -14 -41 -88 -53 -88
-4 0 -10 7 -13 16 -3 8 -2 12 4 9 6 -3 10 1 10 9 0 8 6 19 14 23 7 4 18 18 25
31 6 12 19 22 29 22 11 0 13 3 6 8 -8 5 -5 17 11 39 12 18 25 29 29 25 5 -4 7
0 6 8 -5 37 10 55 25 30z m-91 -48 c-32 -35 -44 -51 -43 -58 0 -3 -12 -20 -28
-37 -15 -18 -27 -36 -25 -40 1 -5 -2 -6 -8 -2 -5 3 -10 3 -10 -2 0 -11 -54
-73 -64 -73 -8 0 75 103 109 133 11 10 20 22 20 27 0 5 11 23 25 42 14 18 23
38 22 43 -2 6 2 5 8 -1 9 -9 8 -17 -6 -32z m-1854 -26 c0 -5 -7 -3 -15 4 -8 7
-12 17 -9 22 7 10 24 -9 24 -26z m-226 -47 c-5 -9 21 -30 29 -23 3 3 8 -3 11
-14 7 -21 67 -88 76 -85 3 1 6 -7 7 -17 2 -18 1 -18 -18 1 -10 10 -19 21 -19
24 0 3 -14 18 -31 35 -18 16 -29 30 -26 30 3 0 -8 13 -24 29 -29 29 -43 65
-15 39 8 -7 12 -16 10 -19z m231 -76 c-2 -10 -4 -20 -4 -22 -1 -3 -7 1 -13 7
-10 10 -10 15 2 22 19 12 19 13 15 -7z m1754 -65 c-17 -16 -28 -28 -25 -28 2
0 -9 -14 -26 -30 -16 -17 -33 -28 -38 -25 -4 3 -10 -4 -13 -15 -5 -19 -27 -29
-27 -11 0 17 50 62 62 55 7 -5 9 -2 5 8 -6 16 30 58 50 58 6 0 13 10 17 23 5
18 8 19 16 7 7 -11 1 -22 -21 -42z m-100 -24 c-6 -8 -17 -14 -23 -14 -6 0 -3
7 6 14 10 7 14 17 10 21 -4 5 -1 5 6 1 10 -6 10 -11 1 -22z m-1707 -28 c10
-18 7 -17 -15 4 -15 14 -27 29 -27 34 0 13 29 -14 42 -38z m1673 4 c3 -5 1
-10 -4 -10 -6 0 -11 5 -11 10 0 6 2 10 4 10 3 0 8 -4 11 -10z m-1069 -131 c2
-30 6 -69 9 -88 4 -36 6 -36 -84 -17 -32 7 -33 8 -18 39 13 29 33 38 22 10 -5
-14 -4 -15 6 -6 9 9 9 16 1 25 -12 15 9 53 23 40 5 -4 5 1 1 12 -5 14 -2 17 9
12 8 -3 15 -1 15 4 0 6 -6 10 -12 11 -10 0 -10 2 0 6 6 2 9 10 6 16 -5 9 -4 9
5 1 7 -6 14 -36 17 -65z m498 20 c-2 -4 -1 -9 3 -11 12 -5 55 -88 46 -88 -4 0
-3 -4 4 -8 8 -5 3 -12 -17 -19 -17 -6 -28 -7 -24 -2 3 5 -2 9 -11 9 -10 0 -13
-5 -9 -12 5 -8 0 -7 -11 2 -11 9 -16 10 -11 3 4 -8 2 -13 -8 -13 -10 0 -14 10
-14 30 1 17 5 30 10 30 4 0 8 5 8 11 0 5 -3 8 -8 6 -4 -3 -7 8 -7 24 -1 24 2
28 20 23 19 -5 19 -4 3 9 -20 16 -24 37 -7 37 5 0 7 6 4 13 -4 6 2 1 13 -13
11 -13 19 -28 16 -31z m261 -89 c3 -5 1 -10 -4 -10 -6 0 -11 5 -11 10 0 6 2
10 4 10 3 0 8 -4 11 -10z m10 -49 c3 -5 2 -12 -3 -15 -5 -3 -9 1 -9 9 0 17 3
19 12 6z m-1065 -5 c0 -3 -4 -8 -10 -11 -5 -3 -10 -1 -10 4 0 6 5 11 10 11 6
0 10 -2 10 -4z m218 -16 c1 -2 6 -3 11 -4 21 -3 23 -16 3 -16 -12 0 -22 4 -22
10 0 5 -6 7 -14 4 -8 -3 -16 -1 -20 4 -4 7 33 9 42 2z m658 -2 c4 -7 4 -10 0
-6 -5 4 -19 2 -33 -3 -31 -11 -100 -23 -93 -16 3 3 17 8 30 11 20 4 77 21 87
25 1 1 5 -5 9 -11z m-596 -18 c0 -5 -5 -10 -11 -10 -5 0 -7 5 -4 10 3 6 8 10
11 10 2 0 4 -4 4 -10z m25 1 c3 -5 2 -12 -3 -15 -5 -3 -9 1 -9 9 0 17 3 19 12
6z m-57 -43 c18 -1 32 -6 32 -10 0 -4 6 -5 14 -2 17 6 31 -12 16 -21 -5 -3
-10 -2 -10 2 0 8 -26 14 -72 16 -10 1 -18 5 -18 9 0 4 -3 7 -7 7 -5 -1 -17 0
-28 1 -17 2 -16 3 5 9 14 4 27 4 30 0 3 -5 20 -9 38 -11z m629 8 c0 -7 -7 -13
-16 -11 -8 1 -26 -4 -40 -11 -14 -8 -38 -11 -54 -8 -18 3 -26 1 -22 -6 4 -6
-1 -7 -11 -3 -15 5 -15 7 0 15 9 5 21 6 26 3 6 -3 10 -2 10 2 0 5 14 10 31 11
18 1 39 7 48 12 22 13 28 12 28 -4z"/>
<path d="M2456 4278 c3 -4 11 -5 19 -1 21 7 19 12 -4 10 -11 0 -18 -5 -15 -9z"/>
<path d="M2306 4263 c-6 -14 -5 -15 5 -6 7 7 10 15 7 18 -3 3 -9 -2 -12 -12z"/>
<path d="M2432 4251 c7 -9 13 -18 15 -20 1 -2 1 5 0 16 0 11 -7 20 -14 20 -10
0 -10 -4 -1 -16z"/>
<path d="M2273 4253 c-17 -6 -17 -20 0 -20 8 0 14 6 14 14 0 7 -1 13 -1 12 -1
0 -7 -3 -13 -6z"/>
<path d="M2393 4243 c4 -3 1 -13 -6 -22 -11 -14 -10 -14 5 -2 16 12 16 31 1
31 -4 0 -3 -3 0 -7z"/>
<path d="M2469 4223 c-13 -16 -12 -17 4 -4 9 7 17 15 17 17 0 8 -8 3 -21 -13z"/>
<path d="M2409 4203 c-13 -16 -12 -17 4 -4 9 7 17 15 17 17 0 8 -8 3 -21 -13z"/>
<path d="M2226 4202 c-3 -5 1 -9 9 -9 8 0 12 4 9 9 -3 4 -7 8 -9 8 -2 0 -6 -4
-9 -8z"/>
<path d="M2189 4183 c-13 -16 -12 -17 4 -4 9 7 17 15 17 17 0 8 -8 3 -21 -13z"/>
<path d="M2204 4158 c-12 -14 -13 -18 -3 -10 9 6 18 10 21 7 2 -3 5 2 5 10 0
19 0 19 -23 -7z"/>
<path d="M2161 4136 c-9 -11 -9 -16 1 -22 7 -4 10 -4 6 1 -4 4 -3 14 3 22 6 7
9 13 6 13 -2 0 -10 -6 -16 -14z"/>
<path d="M2265 4140 c-3 -6 1 -7 9 -4 18 7 21 14 7 14 -6 0 -13 -4 -16 -10z"/>
<path d="M2308 4143 c7 -3 16 -2 19 1 4 3 -2 6 -13 5 -11 0 -14 -3 -6 -6z"/>
<path d="M2215 4129 c-4 -6 -5 -12 -2 -15 2 -3 7 2 10 11 7 17 1 20 -8 4z"/>
<path d="M2353 4119 c-2 -23 3 -25 10 -4 4 8 3 16 -1 19 -4 3 -9 -4 -9 -15z"/>
<path d="M2130 4121 c0 -6 4 -13 10 -16 6 -3 7 1 4 9 -7 18 -14 21 -14 7z"/>
<path d="M2286 4117 c3 -10 9 -15 12 -12 3 3 0 11 -7 18 -10 9 -11 8 -5 -6z"/>
<path d="M2395 4109 c-4 -6 -5 -12 -2 -15 2 -3 7 2 10 11 7 17 1 20 -8 4z"/>
<path d="M2414 4095 c-3 -8 -4 -20 -1 -27 3 -7 6 -3 6 10 1 15 5 21 13 16 7
-4 8 -3 4 4 -10 16 -15 15 -22 -3z"/>
<path d="M2319 4088 c15 -21 31 -23 31 -6 0 6 -3 8 -7 5 -3 -4 -13 -1 -22 6
-14 11 -14 10 -2 -5z"/>
<path d="M2196 4075 c-9 -26 -7 -32 5 -12 6 10 9 21 6 23 -2 3 -7 -2 -11 -11z"/>
<path d="M2257 4076 c-7 -18 36 -48 57 -40 9 3 16 10 16 16 0 5 -4 6 -10 3 -5
-3 -10 -1 -10 4 0 6 -5 11 -11 11 -8 0 -8 -5 1 -15 15 -18 1 -19 -21 -2 -9 7
-14 18 -12 25 6 17 -4 15 -10 -2z"/>
<path d="M2438 4063 c7 -3 16 -2 19 1 4 3 -2 6 -13 5 -11 0 -14 -3 -6 -6z"/>
<path d="M2230 4051 c0 -5 5 -13 10 -16 6 -3 10 -2 10 4 0 5 -4 13 -10 16 -5
3 -10 2 -10 -4z"/>
<path d="M2423 4035 c0 -8 4 -12 9 -9 4 3 8 9 8 15 0 5 -4 9 -8 9 -5 0 -9 -7
-9 -15z"/>
<path d="M2257 4024 c-3 -4 -2 -15 4 -26 8 -14 14 -17 23 -9 7 6 16 8 19 4 4
-3 7 -1 7 5 0 7 7 12 15 12 8 0 15 5 15 10 0 7 -7 7 -21 -1 -15 -8 -24 -8 -32
0 -13 13 -21 14 -30 5z m28 -13 c3 -5 1 -12 -4 -15 -5 -3 -11 1 -15 9 -6 16 9
21 19 6z"/>
<path d="M2914 4306 c1 -8 5 -18 8 -22 4 -3 5 1 4 10 -1 8 -5 18 -8 22 -4 3
-5 -1 -4 -10z"/>
<path d="M2981 4278 c-13 -20 -12 -22 1 -11 8 7 18 10 22 6 4 -4 4 0 0 10 -8
21 -6 21 -23 -5z"/>
<path d="M2911 4247 c2 -2 11 -8 20 -15 12 -9 16 -9 16 1 0 7 -9 14 -20 14
-11 1 -18 1 -16 0z"/>
<path d="M2973 4236 c-3 -6 -3 -8 2 -4 4 4 13 3 20 -2 8 -7 12 -5 12 3 0 16
-25 18 -34 3z"/>
<path d="M3139 4233 c-13 -16 -12 -17 4 -4 16 13 21 21 13 21 -2 0 -10 -8 -17
-17z"/>
<path d="M2876 4218 c3 -5 10 -6 15 -3 13 9 11 12 -6 12 -8 0 -12 -4 -9 -9z"/>
<path d="M3030 4216 c7 -7 13 -7 20 0 6 6 3 10 -10 10 -13 0 -16 -4 -10 -10z"/>
<path d="M2976 4207 c3 -10 9 -15 12 -12 3 3 0 11 -7 18 -10 9 -11 8 -5 -6z"/>
<path d="M3106 4178 c3 -4 9 -8 15 -8 5 0 9 4 9 8 0 5 -7 9 -15 9 -8 0 -12 -4
-9 -9z"/>
<path d="M3190 4180 c0 -5 5 -10 10 -10 6 0 10 5 10 10 0 6 -4 10 -10 10 -5 0
-10 -4 -10 -10z"/>
<path d="M3273 4175 c0 -8 4 -12 9 -9 5 3 6 10 3 15 -9 13 -12 11 -12 -6z"/>
<path d="M3023 4164 c9 -11 15 -23 12 -26 -3 -2 1 -5 9 -5 8 0 12 6 8 15 -3 9
-1 13 5 9 5 -3 10 0 10 8 0 11 -4 12 -14 4 -10 -9 -18 -8 -30 2 -17 13 -17 13
0 -7z"/>
<path d="M3151 4167 c2 -1 13 -9 24 -17 19 -14 19 -14 6 3 -7 9 -18 17 -24 17
-6 0 -8 -1 -6 -3z"/>
<path d="M3219 4153 c-13 -16 -12 -17 4 -4 16 13 21 21 13 21 -2 0 -10 -8 -17
-17z"/>
<path d="M3290 4139 c0 -5 5 -7 10 -4 6 3 10 8 10 11 0 2 -4 4 -10 4 -5 0 -10
-5 -10 -11z"/>
<path d="M3114 4121 c4 -5 1 -12 -4 -14 -6 -3 -5 -4 2 -3 15 3 23 26 8 26 -6
0 -9 -4 -6 -9z"/>
<path d="M3004 4099 c-3 -6 -2 -15 4 -21 6 -6 12 -6 17 3 6 8 4 10 -5 4 -10
-6 -12 -4 -7 8 7 19 2 23 -9 6z"/>
<path d="M3159 4108 c-6 -20 -6 -39 0 -42 4 -3 7 6 7 20 0 20 -4 32 -7 22z"/>
<path d="M3188 4103 c9 -3 10 -9 3 -17 -7 -8 -4 -12 12 -13 12 0 16 1 9 4 -9
3 -10 9 -3 17 7 8 4 12 -12 13 -12 0 -16 -1 -9 -4z"/>
<path d="M2938 4062 c-16 -10 -28 -21 -28 -25 0 -7 37 15 69 40 14 10 -18 -1
-41 -15z"/>
<path d="M3016 4054 c-14 -15 -26 -32 -26 -38 0 -6 7 -3 14 6 7 10 15 17 17
15 2 -1 3 0 2 2 -4 7 19 31 29 31 5 0 6 -5 2 -12 -4 -7 -3 -8 5 -4 12 8 6 26
-8 26 -5 0 -20 -12 -35 -26z"/>
<path d="M3075 4050 c-7 -22 2 -43 15 -35 5 3 11 -5 13 -17 5 -20 5 -20 3 2
-1 15 -7 24 -15 22 -10 -2 -12 4 -7 23 8 30 0 34 -9 5z"/>
<path d="M3124 4045 c-10 -8 -14 -15 -8 -15 6 0 17 7 24 15 16 19 9 19 -16 0z"/>
<path d="M3032 4024 c-7 -8 -8 -14 -3 -14 10 0 25 19 20 25 -2 1 -10 -3 -17
-11z"/>
<path d="M1682 3974 c-7 -8 -8 -14 -3 -14 10 0 25 19 20 25 -2 1 -10 -3 -17
-11z"/>
<path d="M1639 3913 c-13 -16 -12 -17 4 -4 9 7 17 15 17 17 0 8 -8 3 -21 -13z"/>
<path d="M1599 3863 c-13 -16 -12 -17 4 -4 9 7 17 15 17 17 0 8 -8 3 -21 -13z"/>
<path d="M3636 4037 c3 -10 9 -15 12 -12 3 3 0 11 -7 18 -10 9 -11 8 -5 -6z"/>
<path d="M3590 4006 c0 -2 8 -10 18 -17 15 -13 16 -12 3 4 -13 16 -21 21 -21
13z"/>
<path d="M3670 3916 c0 -2 8 -10 18 -17 15 -13 16 -12 3 4 -13 16 -21 21 -21
13z"/>
<path d="M1825 3899 c-3 -4 2 -6 10 -5 21 3 28 13 10 13 -9 0 -18 -4 -20 -8z"/>
<path d="M1830 3876 c0 -2 7 -9 15 -16 13 -11 14 -10 9 4 -5 14 -24 23 -24 12z"/>
<path d="M1870 3856 c0 -2 8 -10 18 -17 15 -13 16 -12 3 4 -13 16 -21 21 -21
13z"/>
<path d="M1799 3838 c-4 -9 -4 -87 0 -82 5 5 9 84 4 84 -2 0 -4 -1 -4 -2z"/>
<path d="M1838 3803 c2 -12 6 -23 7 -23 1 0 5 11 7 23 3 14 0 24 -7 24 -7 0
-10 -10 -7 -24z"/>
<path d="M1739 3818 c-5 -18 -6 -38 -1 -34 7 8 12 36 6 36 -2 0 -4 -1 -5 -2z"/>
<path d="M1870 3792 c6 -12 15 -20 21 -17 15 10 11 -5 -8 -29 -15 -18 -21 -20
-40 -11 -13 7 -20 15 -15 20 4 5 1 5 -6 1 -13 -8 -7 -26 9 -26 6 0 17 -7 25
-15 21 -21 31 -19 50 10 9 14 20 22 25 19 5 -3 6 2 2 12 -5 15 -7 15 -15 0 -5
-9 -13 -16 -19 -16 -5 0 -2 11 6 24 15 23 15 24 -2 22 -10 -2 -24 4 -31 13
-11 14 -11 13 -2 -7z m25 -73 c-10 -15 -25 -10 -19 6 4 8 10 12 15 9 5 -3 7
-10 4 -15z"/>
<path d="M1694 3758 c-4 -7 -4 -10 1 -6 4 4 15 2 24 -5 14 -11 14 -10 2 6 -16
20 -18 21 -27 5z"/>
<path d="M1850 3760 c0 -5 5 -10 10 -10 6 0 10 5 10 10 0 6 -4 10 -10 10 -5 0
-10 -4 -10 -10z"/>
<path d="M1747 3739 c7 -7 15 -10 18 -7 3 3 -2 9 -12 12 -14 6 -15 5 -6 -5z"/>
<path d="M1780 3736 c0 -2 7 -7 16 -10 8 -3 12 -2 9 4 -6 10 -25 14 -25 6z"/>
<path d="M1733 3715 c0 -7 7 -11 15 -7 11 4 13 1 7 -8 -5 -9 -4 -11 3 -6 16
10 15 14 -6 25 -14 7 -19 6 -19 -4z"/>
<path d="M1798 3703 c20 -4 21 -7 10 -21 -12 -15 -11 -16 4 -3 22 16 14 31
-15 30 -21 -2 -21 -2 1 -6z"/>
<path d="M1713 3674 c0 -17 25 -26 33 -12 5 7 2 8 -6 3 -9 -6 -12 -4 -8 7 4 8
1 15 -6 15 -7 0 -13 -6 -13 -13z"/>
<path d="M1777 3673 c5 -12 3 -14 -7 -8 -9 5 -11 4 -6 -4 4 -6 12 -9 17 -6 12
8 12 35 -1 35 -5 0 -6 -7 -3 -17z"/>
<path d="M1949 3686 c-1 -3 -2 -9 -3 -13 -1 -5 -5 -14 -10 -21 -15 -24 -2 -21
17 3 10 15 13 26 7 30 -5 3 -11 4 -11 1z"/>
<path d="M1680 3640 c18 -12 30 -13 30 -2 0 4 -10 9 -22 9 -18 2 -20 0 -8 -7z"/>
<path d="M1750 3640 c0 -6 7 -10 15 -10 8 0 15 2 15 4 0 2 -7 6 -15 10 -8 3
-15 1 -15 -4z"/>
<path d="M1590 3622 c0 -5 10 -17 23 -28 22 -19 22 -19 4 2 -9 11 -14 24 -10
27 3 4 1 7 -5 7 -7 0 -12 -4 -12 -8z"/>
<path d="M1620 3625 c0 -2 6 -8 13 -14 10 -8 14 -7 14 2 0 8 -6 14 -14 14 -7
0 -13 -1 -13 -2z"/>
<path d="M1725 3619 c-4 -6 -4 -13 -1 -16 3 -4 6 -1 6 6 0 7 5 9 12 5 7 -4 8
-3 4 4 -9 15 -13 15 -21 1z"/>
<path d="M1899 3628 c-5 -13 -4 -59 1 -68 4 -6 7 7 6 29 -1 35 -3 48 -7 39z"/>
<path d="M1659 3593 c-13 -16 -12 -17 4 -4 9 7 17 15 17 17 0 8 -8 3 -21 -13z"/>
<path d="M1675 3580 c-3 -5 -1 -10 4 -10 6 0 11 5 11 10 0 6 -2 10 -4 10 -3 0
-8 -4 -11 -10z"/>
<path d="M1717 3577 c-3 -8 -2 -20 3 -26 5 -9 8 -4 8 13 0 29 -3 32 -11 13z"/>
<path d="M1585 3560 c-3 -6 1 -7 9 -4 18 7 21 14 7 14 -6 0 -13 -4 -16 -10z"/>
<path d="M1870 3519 c0 -5 5 -7 10 -4 6 3 10 8 10 11 0 2 -4 4 -10 4 -5 0 -10
-5 -10 -11z"/>
<path d="M3546 3977 c3 -10 9 -15 12 -12 3 3 0 11 -7 18 -10 9 -11 8 -5 -6z"/>
<path d="M3570 3921 c0 -6 4 -13 10 -16 6 -3 7 1 4 9 -7 18 -14 21 -14 7z"/>
<path d="M3557 3848 c19 -21 31 -25 14 -5 -6 8 -9 16 -6 19 3 2 -2 5 -10 5
-13 0 -13 -3 2 -19z"/>
<path d="M3636 3839 c3 -5 9 -7 14 -4 4 3 11 0 13 -5 3 -6 4 -5 3 1 -1 7 -10
13 -19 15 -9 1 -15 -2 -11 -7z"/>
<path d="M3631 3813 c7 -12 15 -20 18 -17 3 2 -3 12 -13 22 -17 16 -18 16 -5
-5z"/>
<path d="M3573 3805 c0 -8 4 -12 9 -9 5 3 6 10 3 15 -9 13 -12 11 -12 -6z"/>
<path d="M3591 3787 c-13 -21 -12 -21 5 -5 10 10 16 20 13 22 -3 3 -11 -5 -18
-17z"/>
<path d="M3519 3795 c-1 -3 -2 -9 -3 -14 0 -5 -4 -13 -8 -17 -5 -4 -8 -12 -8
-18 1 -13 23 23 26 42 2 11 -5 18 -7 7z"/>
<path d="M3612 3771 c-11 -7 -11 -9 0 -14 9 -3 15 1 15 9 0 8 -1 14 -1 14 -1
0 -7 -4 -14 -9z"/>
<path d="M3536 3754 c-3 -8 0 -16 6 -20 7 -5 8 -2 3 6 -6 9 -4 12 7 8 8 -4 15
-1 15 6 0 17 -25 16 -31 0z"/>
<path d="M3472 3751 c-11 -7 -11 -9 0 -14 9 -3 15 1 15 9 0 8 -1 14 -1 14 -1
0 -7 -4 -14 -9z"/>
<path d="M3588 3732 c4 -10 7 -12 10 -4 2 7 9 9 15 5 7 -3 8 -2 4 2 -14 16
-36 14 -29 -3z"/>
<path d="M3682 3738 c-15 -15 -15 -28 0 -28 6 0 8 3 5 7 -4 3 -2 12 4 20 14
16 7 17 -9 1z"/>
<path d="M3522 3716 c7 -8 15 -12 17 -11 5 6 -10 25 -20 25 -5 0 -4 -6 3 -14z"/>
<path d="M3737 3717 c-3 -8 1 -14 8 -14 7 0 11 6 8 14 -3 7 -6 13 -8 13 -2 0
-5 -6 -8 -13z"/>
<path d="M3488 3713 c6 -2 9 -10 6 -15 -4 -7 -2 -8 5 -4 13 9 5 26 -12 25 -9
0 -8 -2 1 -6z"/>
<path d="M3449 3698 c-1 -7 -1 -16 0 -20 2 -12 -17 -10 -22 2 -3 6 -4 5 -3 -2
2 -7 12 -12 22 -10 10 2 28 3 39 3 15 0 16 2 6 9 -8 4 -21 5 -30 2 -14 -5 -14
-3 -2 11 9 11 10 17 2 17 -6 0 -12 -6 -12 -12z"/>
<path d="M3550 3701 c0 -6 4 -13 10 -16 6 -3 7 1 4 9 -7 18 -14 21 -14 7z"/>
<path d="M3601 3688 c9 -16 29 -17 29 -2 0 3 -5 2 -12 -2 -7 -5 -9 -2 -6 8 4
8 0 15 -7 15 -10 0 -11 -5 -4 -19z"/>
<path d="M3686 3681 c-12 -13 -14 -21 -6 -26 6 -4 14 -4 17 -1 4 3 0 6 -7 6
-9 0 -8 6 5 20 10 11 16 20 13 20 -3 0 -13 -9 -22 -19z"/>
<path d="M3522 3676 c7 -8 15 -12 17 -11 5 6 -10 25 -20 25 -5 0 -4 -6 3 -14z"/>
<path d="M3752 3685 c4 -4 3 -14 -4 -22 -8 -11 -7 -12 6 -7 19 7 21 20 4 30
-7 4 -10 4 -6 -1z"/>
<path d="M3639 3678 c-5 -19 -8 -50 -4 -46 7 7 15 48 9 48 -2 0 -4 -1 -5 -2z"/>
<path d="M3507 3663 c-11 -11 -8 -28 9 -49 14 -18 15 -18 4 4 -6 13 -9 30 -6
38 6 15 3 18 -7 7z"/>
<path d="M3550 3660 c0 -5 7 -7 15 -4 8 4 15 8 15 10 0 2 -7 4 -15 4 -8 0 -15
-4 -15 -10z"/>
<path d="M3529 3635 c5 -11 20 -21 33 -22 13 0 17 1 11 4 -7 2 -15 3 -17 1 -3
-2 -12 6 -21 17 -16 20 -16 20 -6 0z"/>
<path d="M3570 3640 c0 -5 5 -10 10 -10 6 0 10 5 10 10 0 6 -4 10 -10 10 -5 0
-10 -4 -10 -10z"/>
<path d="M3655 3639 c-4 -6 -4 -13 -1 -16 3 -4 6 -1 6 6 0 7 5 9 12 5 7 -4 8
-3 4 4 -9 15 -13 15 -21 1z"/>
<path d="M3599 3628 c-9 -30 -6 -37 12 -28 23 13 25 22 2 13 -11 -4 -14 -3 -9
5 4 7 5 12 2 12 -3 0 -6 -1 -7 -2z"/>
<path d="M3729 3603 c-13 -16 -12 -17 4 -4 16 13 21 21 13 21 -2 0 -10 -8 -17
-17z"/>
<path d="M3548 3593 c6 -2 10 -9 7 -14 -4 -5 1 -6 10 -2 13 5 14 7 3 14 -7 5
-17 8 -23 8 -5 0 -4 -3 3 -6z"/>
<path d="M3630 3590 c0 -5 5 -10 11 -10 5 0 7 5 4 10 -3 6 -8 10 -11 10 -2 0
-4 -4 -4 -10z"/>
<path d="M3686 3571 c-19 -7 -19 -8 0 -13 13 -3 21 0 21 8 0 8 -1 14 -1 13 -1
0 -10 -4 -20 -8z"/>
<path d="M3565 3559 c-4 -6 -4 -13 -1 -16 3 -4 6 -1 6 6 0 7 5 9 10 6 6 -4 7
-11 4 -17 -4 -6 -2 -8 4 -4 5 3 13 0 15 -6 4 -10 6 -10 6 0 1 7 6 10 13 6 7
-4 8 -3 4 5 -4 6 -12 9 -17 6 -5 -4 -12 1 -15 9 -7 18 -20 21 -29 5z"/>
<path d="M3611 3567 c2 -1 13 -9 24 -17 19 -14 19 -14 6 3 -7 9 -18 17 -24 17
-6 0 -8 -1 -6 -3z"/>
<path d="M3800 3566 c0 -2 8 -10 18 -17 15 -13 16 -12 3 4 -13 16 -21 21 -21
13z"/>
<path d="M3668 3543 c7 -3 16 -2 19 1 4 3 -2 6 -13 5 -11 0 -14 -3 -6 -6z"/>
<path d="M3856 3727 c3 -10 9 -15 12 -12 3 3 0 11 -7 18 -10 9 -11 8 -5 -6z"/>
<path d="M1594 2902 c3 -5 0 -13 -6 -15 -9 -4 -10 -6 -1 -6 17 -1 25 16 12 25
-7 4 -9 3 -5 -4z"/>
<path d="M1547 2866 c-4 -10 -1 -13 8 -9 8 3 12 9 9 14 -7 12 -11 11 -17 -5z"/>
<path d="M1556 2794 c-8 -20 -8 -24 2 -24 4 0 8 9 9 20 2 24 -3 26 -11 4z"/>
<path d="M3801 2901 c-8 -5 -9 -11 -3 -15 5 -3 12 1 16 9 6 17 6 18 -13 6z"/>
<path d="M3670 2881 c0 -6 4 -12 8 -15 5 -3 9 1 9 9 0 8 -4 15 -9 15 -4 0 -8
-4 -8 -9z"/>
<path d="M3731 2887 c2 -1 13 -9 24 -17 19 -14 19 -14 6 3 -7 9 -18 17 -24 17
-6 0 -8 -1 -6 -3z"/>
<path d="M3650 2861 c0 -5 5 -13 10 -16 6 -3 10 -2 10 4 0 5 -4 13 -10 16 -5
3 -10 2 -10 -4z"/>
<path d="M3727 2863 c-10 -10 -8 -41 2 -48 5 -3 13 0 17 6 4 8 3 9 -4 5 -8 -5
-12 1 -12 14 0 13 4 19 12 14 7 -4 8 -3 4 4 -8 14 -10 14 -19 5z"/>
<path d="M3781 2844 c0 -11 3 -14 6 -6 3 7 2 16 -1 19 -3 4 -6 -2 -5 -13z"/>
<path d="M3850 2840 c0 -5 5 -10 11 -10 5 0 7 5 4 10 -3 6 -8 10 -11 10 -2 0
-4 -4 -4 -10z"/>
<path d="M3826 2798 c3 -4 9 -8 15 -8 5 0 9 4 9 8 0 5 -7 9 -15 9 -8 0 -12 -4
-9 -9z"/>
<path d="M3795 2791 c-3 -5 -2 -12 3 -15 5 -3 9 1 9 9 0 17 -3 19 -12 6z"/>
<path d="M3433 2664 c4 -7 0 -17 -8 -24 -11 -9 -15 -9 -15 -1 0 7 -5 9 -11 5
-8 -5 -8 -9 1 -14 6 -4 11 -10 11 -14 -3 -21 0 -26 12 -19 26 16 41 11 18 -6
-16 -12 -20 -21 -12 -25 6 -4 15 -5 20 -2 5 3 12 -1 15 -10 5 -12 1 -14 -17
-9 -20 5 -20 5 3 -9 14 -8 24 -17 23 -20 -9 -19 -1 -27 13 -15 14 11 18 10 30
-6 8 -10 14 -15 14 -9 0 5 -8 18 -16 29 -11 14 -18 16 -21 8 -6 -18 -20 -16
-20 2 0 20 26 28 44 14 11 -9 17 -9 26 1 10 10 9 12 -5 7 -12 -4 -21 0 -28 13
-13 25 -13 30 3 26 6 -1 9 -1 5 1 -5 3 -8 9 -8 14 0 6 4 8 9 4 6 -3 9 3 8 14
0 11 -4 18 -8 15 -4 -2 -10 2 -13 8 -3 7 -3 3 0 -10 4 -15 1 -22 -8 -20 -7 2
-12 -5 -12 -14 2 -18 -7 -23 -19 -11 -4 3 0 17 8 30 16 24 12 48 -6 37 -5 -3
-17 0 -26 8 -9 7 -14 8 -10 2z m40 -24 c3 6 4 5 3 -2 -2 -7 -9 -12 -15 -10 -6
1 -11 -4 -11 -10 0 -9 -4 -8 -10 2 -6 10 -10 11 -10 3 0 -7 -5 -13 -12 -13 -6
0 -3 9 7 20 13 14 22 17 31 10 8 -8 14 -8 17 0z m16 -85 c-7 -7 -13 -4 -20 7
-6 10 -16 15 -27 12 -13 -5 -14 -4 -4 4 18 12 65 -9 51 -23z"/>
<path d="M3540 2598 c0 -3 7 -19 15 -34 8 -16 15 -22 15 -14 -1 8 -7 24 -15
34 -8 11 -15 17 -15 14z"/>
<path d="M3616 2565 c-3 -8 -1 -15 4 -15 6 0 10 7 10 15 0 8 -2 15 -4 15 -2 0
-6 -7 -10 -15z"/>
<path d="M3670 2549 c0 -5 -6 -7 -12 -3 -7 4 -10 3 -5 -1 4 -5 18 -10 30 -11
12 -2 16 0 9 2 -6 3 -10 10 -6 15 3 5 0 9 -5 9 -6 0 -11 -5 -11 -11z"/>
<path d="M3628 2532 c8 -5 13 -13 12 -18 -1 -5 4 -10 12 -12 11 -3 11 -2 0 6
-8 5 -13 13 -12 18 1 5 -4 10 -12 12 -11 3 -11 2 0 -6z"/>
<path d="M3539 2519 c-7 -4 -6 -8 3 -11 8 -3 22 0 32 8 17 12 17 13 -3 11 -12
-1 -27 -4 -32 -8z"/>
<path d="M3730 2520 c0 -5 5 -10 10 -10 6 0 10 5 10 10 0 6 -4 10 -10 10 -5 0
-10 -4 -10 -10z"/>
<path d="M3575 2501 c-4 -7 0 -8 11 -4 12 4 15 3 10 -5 -4 -7 -2 -12 4 -12 14
0 8 22 -7 27 -6 2 -14 -1 -18 -6z"/>
<path d="M3676 2498 c3 -5 10 -6 15 -3 13 9 11 12 -6 12 -8 0 -12 -4 -9 -9z"/>
<path d="M3490 2480 c0 -5 -8 -7 -17 -4 -14 4 -15 3 -5 -4 8 -5 13 -12 12 -16
-1 -4 0 -10 3 -14 2 -4 2 -1 1 6 -2 7 3 15 11 18 17 7 20 24 5 24 -5 0 -10 -4
-10 -10z"/>
<path d="M3547 2479 c7 -7 15 -10 18 -7 3 3 -2 9 -12 12 -14 6 -15 5 -6 -5z"/>
<path d="M3636 2474 c-8 -20 -8 -24 2 -24 4 0 8 9 9 20 2 24 -3 26 -11 4z"/>
<path d="M3690 2480 c-9 -6 -10 -10 -3 -10 6 0 15 5 18 10 8 12 4 12 -15 0z"/>
<path d="M3579 2468 c-8 -27 -5 -36 9 -30 10 4 12 7 4 10 -7 2 -10 8 -6 13 3
5 3 9 0 9 -3 0 -6 -1 -7 -2z"/>
<path d="M3510 2450 c0 -6 7 -10 15 -10 8 0 15 2 15 4 0 2 -7 6 -15 10 -8 3
-15 1 -15 -4z"/>
<path d="M3667 2433 c3 -7 8 -13 12 -13 4 0 8 6 8 13 0 8 -6 14 -13 14 -7 0
-10 -6 -7 -14z"/>
<path d="M3615 2430 c-4 -6 1 -7 11 -3 13 5 15 3 9 -7 -5 -9 -4 -11 4 -6 6 4
9 12 6 17 -8 12 -22 12 -30 -1z"/>
<path d="M3495 2420 c-3 -5 -1 -10 4 -10 6 0 11 5 11 10 0 6 -2 10 -4 10 -3 0
-8 -4 -11 -10z"/>
<path d="M3590 2425 c0 -5 5 -17 10 -25 5 -8 10 -10 10 -5 0 6 -5 17 -10 25
-5 8 -10 11 -10 5z"/>
<path d="M3517 2403 c-13 -12 -7 -23 11 -22 10 0 12 3 4 6 -6 2 -10 9 -6 14 6
10 0 12 -9 2z"/>
<path d="M3650 2399 c0 -5 5 -7 10 -4 6 3 10 8 10 11 0 2 -4 4 -10 4 -5 0 -10
-5 -10 -11z"/>
<path d="M3555 2391 c-3 -5 0 -13 6 -17 8 -5 9 -3 4 6 -6 10 -4 12 9 7 10 -4
15 -3 11 3 -8 13 -22 13 -30 1z"/>
<path d="M3632 2386 c7 -9 -22 -47 -32 -41 -4 2 -7 -2 -7 -10 0 -19 -1 -20 31
14 21 22 25 31 14 37 -7 4 -10 4 -6 0z"/>
<path d="M3530 2366 c0 -2 7 -7 16 -10 8 -3 12 -2 9 4 -6 10 -25 14 -25 6z"/>
<path d="M1886 2594 c-3 -8 1 -17 9 -20 8 -4 13 -10 10 -14 -2 -4 4 -15 14
-24 14 -13 21 -14 27 -5 4 8 3 10 -4 5 -15 -9 -16 6 -2 20 7 7 6 16 -4 29 -17
23 -43 28 -50 9z m30 -3 c-3 -5 1 -12 10 -15 17 -6 10 -26 -9 -26 -8 0 -8 3 1
9 11 7 10 9 -3 15 -14 5 -13 26 1 26 3 0 3 -4 0 -9z"/>
<path d="M1866 2631 c-3 -5 -20 -7 -37 -6 -22 2 -28 0 -20 -8 18 -18 39 -16
57 4 9 10 14 19 11 19 -3 0 -8 -4 -11 -9z"/>
<path d="M1655 2551 c-3 -5 0 -13 6 -17 8 -5 9 -3 4 6 -6 10 -4 12 9 7 10 -4
15 -3 11 3 -8 13 -22 13 -30 1z"/>
<path d="M1712 2551 c-11 -7 -10 -9 3 -14 9 -4 14 -3 10 2 -3 5 1 12 7 14 7 3
9 6 3 6 -5 0 -16 -3 -23 -8z"/>
<path d="M1700 2520 c8 -5 20 -10 25 -10 6 0 3 5 -5 10 -8 5 -19 10 -25 10 -5
0 -3 -5 5 -10z"/>
<path d="M1735 2500 c-7 -11 22 -26 32 -16 4 3 -1 6 -11 6 -9 0 -14 5 -11 10
3 6 4 10 1 10 -3 0 -8 -5 -11 -10z"/>
<path d="M1685 2479 c-4 -6 -5 -12 -2 -15 2 -3 7 2 10 11 7 17 1 20 -8 4z"/>
<path d="M1820 2475 c-7 -9 -8 -15 -2 -15 5 0 12 7 16 15 3 8 4 15 2 15 -2 0
-9 -7 -16 -15z"/>
<path d="M1717 2473 c-4 -6 0 -13 8 -17 8 -3 17 0 21 6 4 6 3 8 -4 4 -5 -3
-12 -1 -14 6 -3 8 -6 9 -11 1z"/>
<path d="M1768 2463 c6 -2 9 -10 6 -15 -4 -7 -2 -8 5 -4 13 9 5 26 -12 25 -9
0 -8 -2 1 -6z"/>
<path d="M1764 2419 c-4 -7 -3 -9 4 -5 5 3 13 0 15 -6 4 -9 6 -10 6 -1 1 17
-16 25 -25 12z"/>
<path d="M1860 2413 c5 -2 8 -9 5 -13 -3 -5 -1 -11 4 -14 5 -4 8 2 7 11 -2 9
-8 18 -15 19 -6 1 -7 0 -1 -3z"/>
<path d="M1796 2395 c-3 -8 -1 -15 4 -15 6 0 10 7 10 15 0 8 -2 15 -4 15 -2 0
-6 -7 -10 -15z"/>
<path d="M1830 2390 c0 -5 5 -10 10 -10 6 0 10 5 10 10 0 6 -4 10 -10 10 -5 0
-10 -4 -10 -10z"/>
<path d="M1810 2360 c0 -5 5 -10 10 -10 6 0 10 5 10 10 0 6 -4 10 -10 10 -5 0
-10 -4 -10 -10z"/>
<path d="M1815 2310 c-3 -6 1 -7 9 -4 18 7 21 14 7 14 -6 0 -13 -4 -16 -10z"/>
<path d="M1842 2260 c12 -16 22 -30 23 -30 0 0 1 9 2 20 1 11 -2 18 -8 15 -5
-4 -12 1 -15 9 -3 9 -10 16 -15 16 -5 0 0 -13 13 -30z"/>
<path d="M3625 2209 c-4 -6 -5 -12 -2 -15 2 -3 7 2 10 11 7 17 1 20 -8 4z"/>
<path d="M2415 2031 c-3 -6 3 -14 13 -20 14 -7 19 -6 19 4 0 7 -7 11 -15 7
-10 -3 -13 -1 -8 6 4 7 5 12 2 12 -3 0 -7 -4 -11 -9z"/>
<path d="M2441 1963 c7 -10 15 -20 16 -22 2 -2 3 3 3 11 0 9 -7 19 -16 22 -15
6 -15 4 -3 -11z"/>
<path d="M2930 2086 c0 -2 7 -7 16 -10 8 -3 12 -2 9 4 -6 10 -25 14 -25 6z"/>
<path d="M2954 2035 c-4 -8 -11 -12 -17 -8 -5 3 -7 1 -4 -5 8 -12 32 -10 44 3
5 4 2 5 -6 0 -11 -6 -13 -4 -8 8 3 10 4 17 1 17 -2 0 -7 -7 -10 -15z"/>
<path d="M2976 2002 c-3 -5 1 -9 9 -9 8 0 12 4 9 9 -3 4 -7 8 -9 8 -2 0 -6 -4
-9 -8z"/>
<path d="M2950 1970 c0 -5 5 -10 11 -10 5 0 7 5 4 10 -3 6 -8 10 -11 10 -2 0
-4 -4 -4 -10z"/>
<path d="M2995 4641 c-3 -5 -2 -12 3 -15 5 -3 9 1 9 9 0 17 -3 19 -12 6z"/>
<path d="M2116 4553 c-6 -14 -5 -15 5 -6 7 7 10 15 7 18 -3 3 -9 -2 -12 -12z"/>
<path d="M3076 4518 c3 -5 10 -6 15 -3 13 9 11 12 -6 12 -8 0 -12 -4 -9 -9z"/>
<path d="M2933 4505 c0 -8 4 -12 9 -9 5 3 6 10 3 15 -9 13 -12 11 -12 -6z"/>
<path d="M2425 4480 c-3 -6 1 -7 9 -4 18 7 21 14 7 14 -6 0 -13 -4 -16 -10z"/>
<path d="M3116 4442 c-3 -5 1 -9 9 -9 8 0 12 4 9 9 -3 4 -7 8 -9 8 -2 0 -6 -4
-9 -8z"/>
<path d="M2200 4420 c-8 -5 -10 -10 -5 -10 6 0 17 5 25 10 8 5 11 10 5 10 -5
0 -17 -5 -25 -10z"/>
<path d="M2065 4400 c-3 -6 1 -7 9 -4 18 7 21 14 7 14 -6 0 -13 -4 -16 -10z"/>
<path d="M3290 4359 c0 -5 5 -7 10 -4 6 3 10 8 10 11 0 2 -4 4 -10 4 -5 0 -10
-5 -10 -11z"/>
<path d="M3387 4339 c7 -7 15 -10 18 -7 3 3 -2 9 -12 12 -14 6 -15 5 -6 -5z"/>
<path d="M3740 4246 c0 -2 8 -10 18 -17 15 -13 16 -12 3 4 -13 16 -21 21 -21
13z"/>
<path d="M3795 4200 c-3 -5 -1 -10 4 -10 6 0 11 5 11 10 0 6 -2 10 -4 10 -3 0
-8 -4 -11 -10z"/>
<path d="M1675 4160 c3 -5 8 -10 11 -10 2 0 4 5 4 10 0 6 -5 10 -11 10 -5 0
-7 -4 -4 -10z"/>
<path d="M1735 4129 c-4 -6 -5 -12 -2 -15 2 -3 7 2 10 11 7 17 1 20 -8 4z"/>
<path d="M3790 4021 c0 -6 4 -13 10 -16 6 -3 7 1 4 9 -7 18 -14 21 -14 7z"/>
<path d="M1427 3919 c7 -7 15 -10 18 -7 3 3 -2 9 -12 12 -14 6 -15 5 -6 -5z"/>
<path d="M3854 3922 c4 -3 14 -7 22 -8 9 -1 13 0 10 4 -4 3 -14 7 -22 8 -9 1
-13 0 -10 -4z"/>
<path d="M1536 3902 c-3 -5 1 -9 9 -9 8 0 12 4 9 9 -3 4 -7 8 -9 8 -2 0 -6 -4
-9 -8z"/>
<path d="M1435 3860 c3 -5 8 -10 11 -10 2 0 4 5 4 10 0 6 -5 10 -11 10 -5 0
-7 -4 -4 -10z"/>
<path d="M1495 3840 c-3 -5 -1 -10 4 -10 6 0 11 5 11 10 0 6 -2 10 -4 10 -3 0
-8 -4 -11 -10z"/>
<path d="M4150 3839 c0 -5 5 -7 10 -4 6 3 10 8 10 11 0 2 -4 4 -10 4 -5 0 -10
-5 -10 -11z"/>
<path d="M3886 3822 c-3 -5 1 -9 9 -9 8 0 12 4 9 9 -3 4 -7 8 -9 8 -2 0 -6 -4
-9 -8z"/>
<path d="M3933 3785 c0 -8 4 -12 9 -9 5 3 6 10 3 15 -9 13 -12 11 -12 -6z"/>
<path d="M1435 3710 c3 -5 8 -10 11 -10 2 0 4 5 4 10 0 6 -5 10 -11 10 -5 0
-7 -4 -4 -10z"/>
<path d="M1393 3695 c0 -8 4 -12 9 -9 5 3 6 10 3 15 -9 13 -12 11 -12 -6z"/>
<path d="M4035 3669 c-4 -6 -5 -12 -2 -15 2 -3 7 2 10 11 7 17 1 20 -8 4z"/>
<path d="M1406 3642 c-3 -5 1 -9 9 -9 8 0 12 4 9 9 -3 4 -7 8 -9 8 -2 0 -6 -4
-9 -8z"/>
<path d="M1350 3621 c0 -6 4 -13 10 -16 6 -3 7 1 4 9 -7 18 -14 21 -14 7z"/>
<path d="M1390 3599 c0 -5 5 -7 10 -4 6 3 10 8 10 11 0 2 -4 4 -10 4 -5 0 -10
-5 -10 -11z"/>
<path d="M4035 3591 c-3 -5 -2 -12 3 -15 5 -3 9 1 9 9 0 17 -3 19 -12 6z"/>
<path d="M1120 3520 c-9 -6 -10 -10 -3 -10 6 0 15 5 18 10 8 12 4 12 -15 0z"/>
<path d="M1239 3513 c-13 -16 -12 -17 4 -4 9 7 17 15 17 17 0 8 -8 3 -21 -13z"/>
<path d="M4229 3483 c-13 -16 -12 -17 4 -4 16 13 21 21 13 21 -2 0 -10 -8 -17
-17z"/>
<path d="M4390 3486 c0 -2 7 -7 16 -10 8 -3 12 -2 9 4 -6 10 -25 14 -25 6z"/>
<path d="M1327 3419 c7 -7 15 -10 18 -7 3 3 -2 9 -12 12 -14 6 -15 5 -6 -5z"/>
<path d="M1246 3398 c3 -5 10 -6 15 -3 13 9 11 12 -6 12 -8 0 -12 -4 -9 -9z"/>
<path d="M1250 3360 c0 -5 5 -10 11 -10 5 0 7 5 4 10 -3 6 -8 10 -11 10 -2 0
-4 -4 -4 -10z"/>
<path d="M1299 3368 c-5 -18 -6 -38 -1 -34 7 8 12 36 6 36 -2 0 -4 -1 -5 -2z"/>
<path d="M1295 3301 c-3 -5 -2 -12 3 -15 5 -3 9 1 9 9 0 17 -3 19 -12 6z"/>
<path d="M1270 2917 c0 -2 6 -10 14 -16 11 -9 16 -9 22 1 4 7 4 10 -1 6 -4 -4
-14 -3 -22 3 -7 6 -13 9 -13 6z"/>
<path d="M1259 2888 c-5 -18 -6 -38 -1 -34 7 8 12 36 6 36 -2 0 -4 -1 -5 -2z"/>
<path d="M1295 2871 c-3 -5 -2 -12 3 -15 5 -3 9 1 9 9 0 17 -3 19 -12 6z"/>
<path d="M1067 2839 c7 -7 15 -10 18 -7 3 3 -2 9 -12 12 -14 6 -15 5 -6 -5z"/>
<path d="M4101 2836 c-9 -11 -9 -16 1 -22 7 -4 10 -4 6 1 -4 4 -3 14 3 22 6 7
9 13 6 13 -2 0 -10 -6 -16 -14z"/>
<path d="M1335 2780 c3 -5 8 -10 11 -10 2 0 4 5 4 10 0 6 -5 10 -11 10 -5 0
-7 -4 -4 -10z"/>
<path d="M4153 2765 c0 -8 4 -12 9 -9 5 3 6 10 3 15 -9 13 -12 11 -12 -6z"/>
<path d="M1294 2756 c1 -8 5 -18 8 -22 4 -3 5 1 4 10 -1 8 -5 18 -8 22 -4 3
-5 -1 -4 -10z"/>
<path d="M4095 2751 c-3 -5 -2 -12 3 -15 5 -3 9 1 9 9 0 17 -3 19 -12 6z"/>
<path d="M1355 2741 c-3 -5 -2 -12 3 -15 5 -3 9 1 9 9 0 17 -3 19 -12 6z"/>
<path d="M4095 2701 c-3 -5 -2 -12 3 -15 5 -3 9 1 9 9 0 17 -3 19 -12 6z"/>
<path d="M1273 2665 c0 -8 4 -15 9 -15 4 0 8 4 8 9 0 6 -4 12 -8 15 -5 3 -9
-1 -9 -9z"/>
<path d="M1336 2658 c3 -4 11 -5 19 -1 21 7 19 12 -4 10 -11 0 -18 -5 -15 -9z"/>
<path d="M1110 2641 c0 -6 4 -13 10 -16 6 -3 7 1 4 9 -7 18 -14 21 -14 7z"/>
<path d="M1293 2575 c0 -8 4 -12 9 -9 5 3 6 10 3 15 -9 13 -12 11 -12 -6z"/>
<path d="M1455 2489 c-4 -6 -5 -12 -2 -15 2 -3 7 2 10 11 7 17 1 20 -8 4z"/>
<path d="M1410 2460 c0 -5 5 -10 11 -10 5 0 7 5 4 10 -3 6 -8 10 -11 10 -2 0
-4 -4 -4 -10z"/>
<path d="M1185 2440 c-3 -6 1 -7 9 -4 18 7 21 14 7 14 -6 0 -13 -4 -16 -10z"/>
<path d="M3939 2448 c-5 -18 -6 -38 -1 -34 7 8 12 36 6 36 -2 0 -4 -1 -5 -2z"/>
<path d="M1115 2420 c-3 -5 -1 -10 4 -10 6 0 11 5 11 10 0 6 -2 10 -4 10 -3 0
-8 -4 -11 -10z"/>
<path d="M1415 2419 c-3 -4 2 -6 10 -5 21 3 28 13 10 13 -9 0 -18 -4 -20 -8z"/>
<path d="M3993 2405 c0 -8 4 -12 9 -9 5 3 6 10 3 15 -9 13 -12 11 -12 -6z"/>
<path d="M1473 2395 c0 -8 4 -12 9 -9 5 3 6 10 3 15 -9 13 -12 11 -12 -6z"/>
<path d="M3930 2380 c0 -5 5 -10 11 -10 5 0 7 5 4 10 -3 6 -8 10 -11 10 -2 0
-4 -4 -4 -10z"/>
<path d="M4110 2376 c0 -2 8 -10 18 -17 15 -13 16 -12 3 4 -13 16 -21 21 -21
13z"/>
<path d="M1386 2358 c3 -5 10 -6 15 -3 13 9 11 12 -6 12 -8 0 -12 -4 -9 -9z"/>
<path d="M1450 2339 c0 -5 5 -7 10 -4 6 3 10 8 10 11 0 2 -4 4 -10 4 -5 0 -10
-5 -10 -11z"/>
<path d="M1581 2314 c0 -11 3 -14 6 -6 3 7 2 16 -1 19 -3 4 -6 -2 -5 -13z"/>
<path d="M3855 2300 c-3 -5 -1 -10 4 -10 6 0 11 5 11 10 0 6 -2 10 -4 10 -3 0
-8 -4 -11 -10z"/>
<path d="M4075 2289 c-4 -6 -5 -12 -2 -15 2 -3 7 2 10 11 7 17 1 20 -8 4z"/>
<path d="M3762 2258 c-15 -15 -15 -28 0 -28 6 0 8 3 5 7 -4 3 -2 12 4 20 14
16 7 17 -9 1z"/>
<path d="M1451 2247 c2 -1 13 -9 24 -17 19 -14 19 -14 6 3 -7 9 -18 17 -24 17
-6 0 -8 -1 -6 -3z"/>
<path d="M3886 2242 c-3 -5 1 -9 9 -9 8 0 12 4 9 9 -3 4 -7 8 -9 8 -2 0 -6 -4
-9 -8z"/>
<path d="M1536 2221 c-3 -5 2 -15 12 -22 15 -12 16 -12 5 2 -7 9 -10 19 -6 22
3 4 4 7 0 7 -3 0 -8 -4 -11 -9z"/>
<path d="M1310 2200 c0 -5 5 -10 11 -10 5 0 7 5 4 10 -3 6 -8 10 -11 10 -2 0
-4 -4 -4 -10z"/>
<path d="M3819 2208 c-5 -18 -6 -38 -1 -34 7 8 12 36 6 36 -2 0 -4 -1 -5 -2z"/>
<path d="M1696 2158 c3 -5 10 -6 15 -3 13 9 11 12 -6 12 -8 0 -12 -4 -9 -9z"/>
<path d="M1606 2098 c3 -5 10 -6 15 -3 13 9 11 12 -6 12 -8 0 -12 -4 -9 -9z"/>
<path d="M3616 2102 c-3 -5 1 -9 9 -9 8 0 12 4 9 9 -3 4 -7 8 -9 8 -2 0 -6 -4
-9 -8z"/>
<path d="M3766 2098 c3 -5 10 -6 15 -3 13 9 11 12 -6 12 -8 0 -12 -4 -9 -9z"/>
<path d="M1796 2087 c3 -10 9 -15 12 -12 3 3 0 11 -7 18 -10 9 -11 8 -5 -6z"/>
<path d="M1773 2071 c0 -11 5 -18 9 -15 4 3 5 11 1 19 -7 21 -12 19 -10 -4z"/>
<path d="M3575 2080 c-3 -5 -1 -10 4 -10 6 0 11 5 11 10 0 6 -2 10 -4 10 -3 0
-8 -4 -11 -10z"/>
<path d="M1695 2060 c3 -5 8 -10 11 -10 2 0 4 5 4 10 0 6 -5 10 -11 10 -5 0
-7 -4 -4 -10z"/>
<path d="M1735 2060 c3 -5 8 -10 11 -10 2 0 4 5 4 10 0 6 -5 10 -11 10 -5 0
-7 -4 -4 -10z"/>
<path d="M3610 2059 c0 -5 5 -7 10 -4 6 3 10 8 10 11 0 2 -4 4 -10 4 -5 0 -10
-5 -10 -11z"/>
<path d="M3690 2059 c0 -5 5 -7 10 -4 6 3 10 8 10 11 0 2 -4 4 -10 4 -5 0 -10
-5 -10 -11z"/>
<path d="M1659 2028 c-5 -18 -6 -38 -1 -34 7 8 12 36 6 36 -2 0 -4 -1 -5 -2z"/>
<path d="M1754 2022 c4 -3 14 -7 22 -8 9 -1 13 0 10 4 -4 3 -14 7 -22 8 -9 1
-13 0 -10 -4z"/>
<path d="M3610 2019 c0 -5 5 -7 10 -4 6 3 10 8 10 11 0 2 -4 4 -10 4 -5 0 -10
-5 -10 -11z"/>
<path d="M3654 2022 c4 -3 14 -7 22 -8 9 -1 13 0 10 4 -4 3 -14 7 -22 8 -9 1
-13 0 -10 -4z"/>
<path d="M1686 1978 c3 -5 10 -6 15 -3 13 9 11 12 -6 12 -8 0 -12 -4 -9 -9z"/>
<path d="M1734 1982 c4 -3 14 -7 22 -8 9 -1 13 0 10 4 -4 3 -14 7 -22 8 -9 1
-13 0 -10 -4z"/>
<path d="M3636 1958 c3 -5 10 -6 15 -3 13 9 11 12 -6 12 -8 0 -12 -4 -9 -9z"/>
<path d="M2321 1796 c-9 -11 -9 -16 1 -22 7 -4 10 -4 6 1 -4 4 -3 14 3 22 6 7
9 13 6 13 -2 0 -10 -6 -16 -14z"/>
<path d="M3299 1808 c-5 -18 -6 -38 -1 -34 7 8 12 36 6 36 -2 0 -4 -1 -5 -2z"/>
<path d="M2275 1781 c-3 -5 -2 -12 3 -15 5 -3 9 1 9 9 0 17 -3 19 -12 6z"/>
<path d="M2350 1781 c0 -6 4 -13 10 -16 6 -3 7 1 4 9 -7 18 -14 21 -14 7z"/>
<path d="M2996 1782 c-3 -4 4 -9 15 -9 23 -2 25 3 4 10 -8 4 -16 3 -19 -1z"/>
<path d="M2910 1769 c0 -5 5 -7 10 -4 6 3 10 8 10 11 0 2 -4 4 -10 4 -5 0 -10
-5 -10 -11z"/>
<path d="M3353 1765 c0 -8 4 -12 9 -9 5 3 6 10 3 15 -9 13 -12 11 -12 -6z"/>
<path d="M2020 1766 c0 -2 8 -10 18 -17 15 -13 16 -12 3 4 -13 16 -21 21 -21
13z"/>
<path d="M2392 1764 c3 -3 12 -6 20 -8 7 -1 20 -5 28 -10 12 -7 13 -6 3 4 -7
8 -23 15 -35 17 -12 2 -19 1 -16 -3z"/>
<path d="M2333 1705 c0 -8 4 -12 9 -9 5 3 6 10 3 15 -9 13 -12 11 -12 -6z"/>
<path d="M2370 1699 c0 -5 5 -7 10 -4 6 3 10 8 10 11 0 2 -4 4 -10 4 -5 0 -10
-5 -10 -11z"/>
<path d="M2415 1700 c3 -5 8 -10 11 -10 2 0 4 5 4 10 0 6 -5 10 -11 10 -5 0
-7 -4 -4 -10z"/>
<path d="M2450 1699 c0 -5 5 -7 10 -4 6 3 10 8 10 11 0 2 -4 4 -10 4 -5 0 -10
-5 -10 -11z"/>
<path d="M3035 1680 c3 -5 8 -10 11 -10 2 0 4 5 4 10 0 6 -5 10 -11 10 -5 0
-7 -4 -4 -10z"/>
<path d="M2354 1662 c4 -3 14 -7 22 -8 9 -1 13 0 10 4 -4 3 -14 7 -22 8 -9 1
-13 0 -10 -4z"/>
<path d="M2415 1660 c-3 -5 -1 -10 4 -10 6 0 11 5 11 10 0 6 -2 10 -4 10 -3 0
-8 -4 -11 -10z"/>
<path d="M3014 1656 c1 -8 5 -18 8 -22 4 -3 5 1 4 10 -1 8 -5 18 -8 22 -4 3
-5 -1 -4 -10z"/>
<path d="M3075 1660 c3 -5 8 -10 11 -10 2 0 4 5 4 10 0 6 -5 10 -11 10 -5 0
-7 -4 -4 -10z"/>
<path d="M1913 1607 c0 -8 6 -14 14 -14 9 0 10 4 2 14 -6 7 -12 13 -14 13 -1
0 -2 -6 -2 -13z"/>
<path d="M2356 1282 c-3 -5 1 -9 9 -9 8 0 12 4 9 9 -3 4 -7 8 -9 8 -2 0 -6 -4
-9 -8z"/>
</g>
</svg>
